<svg id="Шар_1" data-name="Шар 1" xmlns="http://www.w3.org/2000/svg" xmlns:xlink="http://www.w3.org/1999/xlink" viewBox="0 0 2500 3000">
  <defs>
    <linearGradient id="Градієнт_без_назви_5" data-name="Градієнт без назви 5" x1="1520" y1="515.07" x2="1514" y2="686.93" gradientUnits="userSpaceOnUse">
      <stop offset="0.47" stop-color="#fd9d01"/>
      <stop offset="1" stop-color="#fdbe02"/>
    </linearGradient>
    <linearGradient id="Градієнт_без_назви_6" data-name="Градієнт без назви 6" x1="1517" y1="681" x2="1517" y2="624" gradientUnits="userSpaceOnUse">
      <stop offset="0" stop-color="#ffff7a"/>
      <stop offset="1" stop-color="#fd9d01"/>
    </linearGradient>
    <linearGradient id="Градієнт_без_назви_5-2" x1="1312.11" y1="1892.07" x2="1312.11" y2="2095.37" xlink:href="#Градієнт_без_назви_5"/>
    <linearGradient id="Градієнт_без_назви_6-2" x1="1312.11" y1="2092.92" x2="1312.11" y2="2043.32" xlink:href="#Градієнт_без_назви_6"/>
    <linearGradient id="Градієнт_без_назви_5-3" x1="1312.11" y1="2160.07" x2="1312.11" y2="2363.37" xlink:href="#Градієнт_без_назви_5"/>
    <linearGradient id="Градієнт_без_назви_6-3" x1="1312.11" y1="2360.92" x2="1312.11" y2="2311.32" xlink:href="#Градієнт_без_назви_6"/>
    <linearGradient id="Градієнт_без_назви_5-4" x1="1312.11" y1="2429.07" x2="1312.11" y2="2632.37" xlink:href="#Градієнт_без_назви_5"/>
    <linearGradient id="Градієнт_без_назви_6-4" x1="1312.11" y1="2629.92" x2="1312.11" y2="2580.32" xlink:href="#Градієнт_без_назви_6"/>
    <linearGradient id="Градієнт_без_назви_5-5" x1="1117.77" y1="3231.75" x2="1166.62" y2="3284.76" gradientTransform="matrix(0.91, -0.48, 0.42, 1.03, -1095.39, -273.54)" xlink:href="#Градієнт_без_назви_5"/>
    <linearGradient id="Градієнт_без_назви_5-6" x1="2258.11" y1="1655.07" x2="2258.11" y2="1858.37" xlink:href="#Градієнт_без_назви_5"/>
    <linearGradient id="Градієнт_без_назви_6-5" x1="2258.11" y1="1855.92" x2="2258.11" y2="1806.32" xlink:href="#Градієнт_без_назви_6"/>
    <linearGradient id="Градієнт_без_назви_5-7" x1="1051.11" y1="2157.07" x2="1051.11" y2="2360.37" xlink:href="#Градієнт_без_назви_5"/>
    <linearGradient id="Градієнт_без_назви_6-6" x1="1051.11" y1="2357.92" x2="1051.11" y2="2308.32" xlink:href="#Градієнт_без_назви_6"/>
    <linearGradient id="Градієнт_без_назви_5-8" x1="1051.11" y1="2426.07" x2="1051.11" y2="2629.37" xlink:href="#Градієнт_без_назви_5"/>
    <linearGradient id="Градієнт_без_назви_6-7" x1="1051.11" y1="2626.92" x2="1051.11" y2="2577.32" xlink:href="#Градієнт_без_назви_6"/>
    <linearGradient id="Градієнт_без_назви_5-9" x1="1051.11" y1="2767.07" x2="1051.11" y2="2970.37" xlink:href="#Градієнт_без_назви_5"/>
    <linearGradient id="Градієнт_без_назви_6-8" x1="1051.11" y1="2967.92" x2="1051.11" y2="2918.32" xlink:href="#Градієнт_без_назви_6"/>
    <linearGradient id="Градієнт_без_назви_5-10" x1="2012.11" y1="419.07" x2="2012.11" y2="622.37" xlink:href="#Градієнт_без_назви_5"/>
    <linearGradient id="Градієнт_без_назви_6-9" x1="2012.11" y1="619.92" x2="2012.11" y2="570.32" xlink:href="#Градієнт_без_назви_6"/>
    <linearGradient id="Градієнт_без_назви_5-11" x1="863.75" y1="3181.64" x2="912.6" y2="3234.65" gradientTransform="matrix(0.91, -0.48, 0.42, 1.03, -1104.91, -346.43)" xlink:href="#Градієнт_без_назви_5"/>
    <linearGradient id="Градієнт_без_назви_5-12" x1="1463.18" y1="2479.76" x2="2466.63" y2="2479.76" xlink:href="#Градієнт_без_назви_5"/>
    <linearGradient id="Градієнт_без_назви_5-13" x1="1657.91" y1="1942" x2="2271.91" y2="1942" xlink:href="#Градієнт_без_назви_5"/>
    <linearGradient id="Градієнт_без_назви_9" data-name="Градієнт без назви 9" x1="1498" y1="1789" x2="1602" y2="1789" gradientUnits="userSpaceOnUse">
      <stop offset="0" stop-color="#fcb800"/>
      <stop offset="1" stop-color="#fdbe02"/>
    </linearGradient>
    <linearGradient id="Градієнт_без_назви_9-2" x1="1526.51" y1="1788.3" x2="1573.12" y2="1788.3" xlink:href="#Градієнт_без_назви_9"/>
    <linearGradient id="Градієнт_без_назви_5-14" x1="2298.11" y1="420.07" x2="2298.11" y2="623.37" xlink:href="#Градієнт_без_назви_5"/>
    <linearGradient id="Градієнт_без_назви_6-10" x1="2298.11" y1="620.92" x2="2298.11" y2="571.32" xlink:href="#Градієнт_без_назви_6"/>
    <linearGradient id="Градієнт_без_назви_5-15" x1="1320.11" y1="2763.07" x2="1320.11" y2="2966.37" xlink:href="#Градієнт_без_назви_5"/>
    <linearGradient id="Градієнт_без_назви_6-11" x1="1320.11" y1="2963.92" x2="1320.11" y2="2914.32" xlink:href="#Градієнт_без_назви_6"/>
    <linearGradient id="Градієнт_без_назви_5-16" x1="1291.52" y1="2865" x2="1355.8" y2="2865" xlink:href="#Градієнт_без_назви_5"/>
    <linearGradient id="Градієнт_без_назви_3" data-name="Градієнт без назви 3" x1="2017" y1="486" x2="2095" y2="486" gradientUnits="userSpaceOnUse">
      <stop offset="0" stop-color="#fd9d01"/>
      <stop offset="1" stop-color="#fda002"/>
    </linearGradient>
    <linearGradient id="Градієнт_без_назви_5-17" x1="2047.5" y1="476.19" x2="2064.55" y2="476.19" xlink:href="#Градієнт_без_назви_5"/>
    <linearGradient id="Градієнт_без_назви_5-18" x1="2053.73" y1="493.4" x2="2058.59" y2="493.4" xlink:href="#Градієнт_без_назви_5"/>
    <linearGradient id="Градієнт_без_назви_3-2" x1="1970" y1="518" x2="1978" y2="518" xlink:href="#Градієнт_без_назви_3"/>
    <linearGradient id="Градієнт_без_назви_3-3" x1="1988" y1="518" x2="1996" y2="518" xlink:href="#Градієнт_без_назви_3"/>
    <linearGradient id="Градієнт_без_назви_3-4" x1="2006" y1="518" x2="2014" y2="518" xlink:href="#Градієнт_без_назви_3"/>
    <linearGradient id="Градієнт_без_назви_2" data-name="Градієнт без назви 2" x1="584.61" y1="82" x2="584.61" y2="2002" gradientUnits="userSpaceOnUse">
      <stop offset="0" stop-color="#0c5ab0"/>
      <stop offset="0.33" stop-color="#195596"/>
      <stop offset="0.67" stop-color="#28417d"/>
      <stop offset="1" stop-color="#2d3c7d"/>
    </linearGradient>
  </defs>
  <title>customization</title>
  <rect x="1259" y="522" width="516" height="158" rx="57.5" ry="57.5" style="fill: url(#Градієнт_без_назви_5)"/>
  <path d="M1717.5,666.84h-401c-31.76,0-57.5-19.18-57.5-42.84v14.16c0,23.66,25.74,42.84,57.5,42.84h401c31.76,0,57.5-19.18,57.5-42.84V624C1775,647.66,1749.26,666.84,1717.5,666.84Z" style="fill: url(#Градієнт_без_назви_6)"/>
  <path d="M1717.5,670.6h-401c-31.76,0-57.5-20.86-57.5-46.6v15.4c0,25.74,25.74,46.6,57.5,46.6h401c31.76,0,57.5-20.86,57.5-46.6V624C1775,649.74,1749.26,670.6,1717.5,670.6Z" style="fill: #fc8601"/>
  <rect x="954.57" y="1071.45" width="894" height="273.1" rx="57.5" ry="57.5" transform="translate(2609.57 -193.57) rotate(90)" style="fill: #04756c"/>
  <rect x="14" y="2109" width="886" height="848" rx="57.5" ry="57.5" transform="translate(2990 2076) rotate(90)" style="fill: #04756c"/>
  <rect x="1466.5" y="866.5" width="886" height="609" rx="57.5" ry="57.5" transform="translate(3080.5 -738.5) rotate(90)" style="fill: #04756c"/>
  <rect x="1209.24" y="1892.07" width="205.74" height="203.29" rx="22.98" ry="22.98" style="fill: url(#Градієнт_без_назви_5-2)"/>
  <path d="M1389.68,1893.3a25.3,25.3,0,0,1,25.3,25.3v152.69a25.3,25.3,0,0,1-25.3,25.3H1234.54a25.3,25.3,0,0,1-25.3-25.3V1918.6a25.3,25.3,0,0,1,25.3-25.3h155.14m0-2H1234.54a27.34,27.34,0,0,0-27.3,27.3v152.69a27.34,27.34,0,0,0,27.3,27.3h155.14a27.33,27.33,0,0,0,27.3-27.3V1918.6a27.33,27.33,0,0,0-27.3-27.3Z" style="fill: #353535"/>
  <path d="M1389.88,2068.42H1234.35a25.11,25.11,0,0,1-25.11-25.1v24.49a25.11,25.11,0,0,0,25.11,25.11h155.53a25.11,25.11,0,0,0,25.1-25.11v-24.49A25.1,25.1,0,0,1,1389.88,2068.42Z" style="fill: url(#Градієнт_без_назви_6-2)"/>
  <path d="M1389.88,2072.1H1234.35a25.11,25.11,0,0,1-25.11-25.11v24.5a25.11,25.11,0,0,0,25.11,25.1h155.53a25.1,25.1,0,0,0,25.1-25.1V2047A25.11,25.11,0,0,1,1389.88,2072.1Z" style="fill: #fc8601"/>
  <rect x="1209.24" y="2160.07" width="205.74" height="203.29" rx="22.98" ry="22.98" style="fill: url(#Градієнт_без_назви_5-3)"/>
  <path d="M1389.68,2161.3a25.3,25.3,0,0,1,25.3,25.3v152.69a25.3,25.3,0,0,1-25.3,25.3H1234.54a25.3,25.3,0,0,1-25.3-25.3V2186.6a25.3,25.3,0,0,1,25.3-25.3h155.14m0-2H1234.54a27.34,27.34,0,0,0-27.3,27.3v152.69a27.34,27.34,0,0,0,27.3,27.3h155.14a27.33,27.33,0,0,0,27.3-27.3V2186.6a27.33,27.33,0,0,0-27.3-27.3Z" style="fill: #353535"/>
  <path d="M1389.88,2336.42H1234.35a25.11,25.11,0,0,1-25.11-25.1v24.49a25.11,25.11,0,0,0,25.11,25.11h155.53a25.11,25.11,0,0,0,25.1-25.11v-24.49A25.1,25.1,0,0,1,1389.88,2336.42Z" style="fill: url(#Градієнт_без_назви_6-3)"/>
  <path d="M1389.88,2340.1H1234.35a25.11,25.11,0,0,1-25.11-25.11v24.5a25.11,25.11,0,0,0,25.11,25.1h155.53a25.1,25.1,0,0,0,25.1-25.1V2315A25.11,25.11,0,0,1,1389.88,2340.1Z" style="fill: #fc8601"/>
  <rect x="1209.24" y="2429.07" width="205.74" height="203.29" rx="22.98" ry="22.98" style="fill: url(#Градієнт_без_назви_5-4)"/>
  <path d="M1389.68,2430.3a25.3,25.3,0,0,1,25.3,25.3v152.69a25.3,25.3,0,0,1-25.3,25.3H1234.54a25.3,25.3,0,0,1-25.3-25.3V2455.6a25.3,25.3,0,0,1,25.3-25.3h155.14m0-2H1234.54a27.34,27.34,0,0,0-27.3,27.3v152.69a27.34,27.34,0,0,0,27.3,27.3h155.14a27.33,27.33,0,0,0,27.3-27.3V2455.6a27.33,27.33,0,0,0-27.3-27.3Z" style="fill: #353535"/>
  <path d="M1389.88,2605.42H1234.35a25.11,25.11,0,0,1-25.11-25.1v24.49a25.11,25.11,0,0,0,25.11,25.11h155.53a25.11,25.11,0,0,0,25.1-25.11v-24.49A25.1,25.1,0,0,1,1389.88,2605.42Z" style="fill: url(#Градієнт_без_назви_6-4)"/>
  <path d="M1389.88,2609.1H1234.35a25.11,25.11,0,0,1-25.11-25.11v24.5a25.11,25.11,0,0,0,25.11,25.1h155.53a25.1,25.1,0,0,0,25.1-25.1V2584A25.11,25.11,0,0,1,1389.88,2609.1Z" style="fill: #fc8601"/>
  <path d="M1292.31,2301.72q-.29-34.95-.58-69.9l59.1-17.23v76.32" style="fill: none;stroke: #002324;stroke-linejoin: round;stroke-width: 6px"/>
  <line x1="1290.4" y1="2244.28" x2="1349.49" y2="2226.58" style="fill: none;stroke: #002324;stroke-miterlimit: 10;stroke-width: 7px"/>
  <circle cx="1277.48" cy="2299.12" r="14.33" style="fill: none;stroke: #002324;stroke-linejoin: round;stroke-width: 7px"/>
  <circle cx="1335.65" cy="2291.38" r="14.33" style="fill: none;stroke: #002324;stroke-linejoin: round;stroke-width: 7px"/>
  <rect x="1283.44" y="2482.88" width="60.01" height="97.97" rx="9.71" ry="9.71" transform="translate(758.05 -265.82) rotate(16.19)" style="fill: #002324;stroke: #002324;stroke-miterlimit: 10;stroke-width: 7px"/>
  <rect x="1286.68" y="2491" width="53.71" height="82.71" rx="9.71" ry="9.71" transform="translate(758.19 -265.82) rotate(16.19)" style="fill: url(#Градієнт_без_назви_5-5)"/>
  <line x1="1279.33" y1="2502.97" x2="1262.78" y2="2560.65" style="fill: none;stroke: #002324;stroke-linecap: round;stroke-linejoin: round;stroke-width: 3px"/>
  <line x1="1267.2" y1="2518.6" x2="1255.72" y2="2558.62" style="fill: none;stroke: #002324;stroke-linecap: round;stroke-linejoin: round;stroke-width: 3px"/>
  <line x1="1347.57" y1="2558.22" x2="1364.12" y2="2500.54" style="fill: none;stroke: #002324;stroke-linecap: round;stroke-linejoin: round;stroke-width: 3px"/>
  <line x1="1359.7" y1="2542.59" x2="1371.18" y2="2502.57" style="fill: none;stroke: #002324;stroke-linecap: round;stroke-linejoin: round;stroke-width: 3px"/>
  <line x1="1371.49" y1="2528.14" x2="1378.24" y2="2504.6" style="fill: none;stroke: #002324;stroke-linecap: round;stroke-linejoin: round;stroke-width: 2px"/>
  <line x1="1248.66" y1="2556.6" x2="1255.41" y2="2533.05" style="fill: none;stroke: #002324;stroke-linecap: round;stroke-linejoin: round;stroke-width: 2px"/>
  <path d="M1314,1940.45l-25.48,24.49h-25.73a3.91,3.91,0,0,0-3.9,3.9v26.49a3.91,3.91,0,0,0,3.9,3.9h26.62l24.59,23.64Z" style="fill: #002324;stroke: #002324;stroke-miterlimit: 10;stroke-width: 7px"/>
  <path d="M1340.28,2011.05a30,30,0,0,0,0-58.78" style="fill: none;stroke: #002324;stroke-linecap: round;stroke-linejoin: round;stroke-width: 7px"/>
  <path d="M1331.09,1998.8h.82c6.59-.23,17.15-6.26,17.15-17.15a17.15,17.15,0,0,0-17.15-17.14c-.48,0-1,0-1.43.07l-.61-.07" style="fill: none;stroke: #002324;stroke-linecap: round;stroke-linejoin: round;stroke-width: 7px"/>
  <rect x="2155.24" y="1655.07" width="205.74" height="203.29" rx="22.98" ry="22.98" style="fill: url(#Градієнт_без_назви_5-6)"/>
  <path d="M2335.68,1656.3a25.3,25.3,0,0,1,25.3,25.3v152.69a25.3,25.3,0,0,1-25.3,25.3H2180.54a25.3,25.3,0,0,1-25.3-25.3V1681.6a25.3,25.3,0,0,1,25.3-25.3h155.14m0-2H2180.54a27.34,27.34,0,0,0-27.3,27.3v152.69a27.34,27.34,0,0,0,27.3,27.3h155.14a27.33,27.33,0,0,0,27.3-27.3V1681.6a27.33,27.33,0,0,0-27.3-27.3Z" style="fill: #353535"/>
  <path d="M2335.88,1831.42H2180.35a25.11,25.11,0,0,1-25.11-25.1v24.49a25.11,25.11,0,0,0,25.11,25.11h155.53a25.11,25.11,0,0,0,25.1-25.11v-24.49A25.1,25.1,0,0,1,2335.88,1831.42Z" style="fill: url(#Градієнт_без_назви_6-5)"/>
  <path d="M2335.88,1835.1H2180.35a25.11,25.11,0,0,1-25.11-25.11v24.5a25.11,25.11,0,0,0,25.11,25.1h155.53a25.1,25.1,0,0,0,25.1-25.1V1810A25.11,25.11,0,0,1,2335.88,1835.1Z" style="fill: #fc8601"/>
  <rect x="948.24" y="2157.07" width="205.74" height="203.29" rx="22.98" ry="22.98" style="fill: url(#Градієнт_без_назви_5-7)"/>
  <path d="M1128.68,2158.3a25.3,25.3,0,0,1,25.3,25.3v152.69a25.3,25.3,0,0,1-25.3,25.3H973.54a25.3,25.3,0,0,1-25.3-25.3V2183.6a25.3,25.3,0,0,1,25.3-25.3h155.14m0-2H973.54a27.34,27.34,0,0,0-27.3,27.3v152.69a27.34,27.34,0,0,0,27.3,27.3h155.14a27.33,27.33,0,0,0,27.3-27.3V2183.6a27.33,27.33,0,0,0-27.3-27.3Z" style="fill: #353535"/>
  <path d="M1128.88,2333.42H973.35a25.11,25.11,0,0,1-25.11-25.1v24.49a25.11,25.11,0,0,0,25.11,25.11h155.53a25.11,25.11,0,0,0,25.1-25.11v-24.49A25.1,25.1,0,0,1,1128.88,2333.42Z" style="fill: url(#Градієнт_без_назви_6-6)"/>
  <path d="M1128.88,2337.1H973.35A25.11,25.11,0,0,1,948.24,2312v24.5a25.11,25.11,0,0,0,25.11,25.1h155.53a25.1,25.1,0,0,0,25.1-25.1V2312A25.11,25.11,0,0,1,1128.88,2337.1Z" style="fill: #fc8601"/>
  <rect x="948.24" y="2426.07" width="205.74" height="203.29" rx="22.98" ry="22.98" style="fill: url(#Градієнт_без_назви_5-8)"/>
  <path d="M1128.68,2427.3a25.3,25.3,0,0,1,25.3,25.3v152.69a25.3,25.3,0,0,1-25.3,25.3H973.54a25.3,25.3,0,0,1-25.3-25.3V2452.6a25.3,25.3,0,0,1,25.3-25.3h155.14m0-2H973.54a27.34,27.34,0,0,0-27.3,27.3v152.69a27.34,27.34,0,0,0,27.3,27.3h155.14a27.33,27.33,0,0,0,27.3-27.3V2452.6a27.33,27.33,0,0,0-27.3-27.3Z" style="fill: #353535"/>
  <path d="M1128.88,2602.42H973.35a25.11,25.11,0,0,1-25.11-25.1v24.49a25.11,25.11,0,0,0,25.11,25.11h155.53a25.11,25.11,0,0,0,25.1-25.11v-24.49A25.1,25.1,0,0,1,1128.88,2602.42Z" style="fill: url(#Градієнт_без_назви_6-7)"/>
  <path d="M1128.88,2606.1H973.35A25.11,25.11,0,0,1,948.24,2581v24.5a25.11,25.11,0,0,0,25.11,25.1h155.53a25.1,25.1,0,0,0,25.1-25.1V2581A25.11,25.11,0,0,1,1128.88,2606.1Z" style="fill: #fc8601"/>
  <rect x="948.24" y="2767.07" width="205.74" height="203.29" rx="22.98" ry="22.98" style="fill: url(#Градієнт_без_назви_5-9)"/>
  <path d="M1128.68,2768.3a25.3,25.3,0,0,1,25.3,25.3v152.69a25.3,25.3,0,0,1-25.3,25.3H973.54a25.3,25.3,0,0,1-25.3-25.3V2793.6a25.3,25.3,0,0,1,25.3-25.3h155.14m0-2H973.54a27.34,27.34,0,0,0-27.3,27.3v152.69a27.34,27.34,0,0,0,27.3,27.3h155.14a27.33,27.33,0,0,0,27.3-27.3V2793.6a27.33,27.33,0,0,0-27.3-27.3Z" style="fill: #353535"/>
  <path d="M1128.88,2943.42H973.35a25.11,25.11,0,0,1-25.11-25.1v24.49a25.11,25.11,0,0,0,25.11,25.11h155.53a25.11,25.11,0,0,0,25.1-25.11v-24.49A25.1,25.1,0,0,1,1128.88,2943.42Z" style="fill: url(#Градієнт_без_назви_6-8)"/>
  <path d="M1128.88,2947.1H973.35A25.11,25.11,0,0,1,948.24,2922v24.5a25.11,25.11,0,0,0,25.11,25.1h155.53a25.1,25.1,0,0,0,25.1-25.1V2922A25.11,25.11,0,0,1,1128.88,2947.1Z" style="fill: #fc8601"/>
  <rect x="1909.24" y="419.07" width="205.74" height="203.29" rx="22.98" ry="22.98" style="fill: url(#Градієнт_без_назви_5-10)"/>
  <path d="M2089.68,420.3a25.3,25.3,0,0,1,25.3,25.3V598.29a25.3,25.3,0,0,1-25.3,25.3H1934.54a25.3,25.3,0,0,1-25.3-25.3V445.6a25.3,25.3,0,0,1,25.3-25.3h155.14m0-2H1934.54a27.34,27.34,0,0,0-27.3,27.3V598.29a27.34,27.34,0,0,0,27.3,27.3h155.14a27.33,27.33,0,0,0,27.3-27.3V445.6a27.33,27.33,0,0,0-27.3-27.3Z" style="fill: #353535"/>
  <path d="M2089.88,595.42H1934.35a25.11,25.11,0,0,1-25.11-25.1v24.49a25.11,25.11,0,0,0,25.11,25.11h155.53a25.11,25.11,0,0,0,25.1-25.11V570.32A25.1,25.1,0,0,1,2089.88,595.42Z" style="fill: url(#Градієнт_без_назви_6-9)"/>
  <path d="M2089.88,599.1H1934.35A25.11,25.11,0,0,1,1909.24,574v24.5a25.11,25.11,0,0,0,25.11,25.1h155.53a25.1,25.1,0,0,0,25.1-25.1V574A25.11,25.11,0,0,1,2089.88,599.1Z" style="fill: #fc8601"/>
  <path d="M1031.31,2298.72q-.29-34.95-.58-69.9l59.1-17.23v76.32" style="fill: none;stroke: #002324;stroke-linejoin: round;stroke-width: 6px"/>
  <line x1="1029.4" y1="2241.28" x2="1088.49" y2="2223.58" style="fill: none;stroke: #002324;stroke-miterlimit: 10;stroke-width: 7px"/>
  <circle cx="1016.48" cy="2296.12" r="14.33" style="fill: none;stroke: #002324;stroke-linejoin: round;stroke-width: 7px"/>
  <circle cx="1074.65" cy="2288.38" r="14.33" style="fill: none;stroke: #002324;stroke-linejoin: round;stroke-width: 7px"/>
  <rect x="1022.44" y="2479.88" width="60.01" height="97.97" rx="9.71" ry="9.71" transform="translate(746.87 -193.16) rotate(16.19)" style="fill: #002324;stroke: #002324;stroke-miterlimit: 10;stroke-width: 7px"/>
  <rect x="1025.68" y="2488" width="53.71" height="82.71" rx="9.71" ry="9.71" transform="translate(747.01 -193.17) rotate(16.19)" style="fill: url(#Градієнт_без_назви_5-11)"/>
  <line x1="1018.33" y1="2499.97" x2="1001.78" y2="2557.65" style="fill: none;stroke: #002324;stroke-linecap: round;stroke-linejoin: round;stroke-width: 3px"/>
  <line x1="1006.2" y1="2515.6" x2="994.72" y2="2555.62" style="fill: none;stroke: #002324;stroke-linecap: round;stroke-linejoin: round;stroke-width: 3px"/>
  <line x1="1086.57" y1="2555.22" x2="1103.12" y2="2497.54" style="fill: none;stroke: #002324;stroke-linecap: round;stroke-linejoin: round;stroke-width: 3px"/>
  <line x1="1098.7" y1="2539.59" x2="1110.18" y2="2499.57" style="fill: none;stroke: #002324;stroke-linecap: round;stroke-linejoin: round;stroke-width: 3px"/>
  <line x1="1110.49" y1="2525.14" x2="1117.24" y2="2501.6" style="fill: none;stroke: #002324;stroke-linecap: round;stroke-linejoin: round;stroke-width: 2px"/>
  <line x1="987.66" y1="2553.6" x2="994.41" y2="2530.05" style="fill: none;stroke: #002324;stroke-linecap: round;stroke-linejoin: round;stroke-width: 2px"/>
  <path d="M2260,1703.45l-25.48,24.49h-25.73a3.91,3.91,0,0,0-3.9,3.9v26.49a3.91,3.91,0,0,0,3.9,3.9h26.62l24.59,23.64Z" style="fill: #002324;stroke: #002324;stroke-miterlimit: 10;stroke-width: 7px"/>
  <path d="M2286.28,1774.05a30,30,0,0,0,0-58.78" style="fill: none;stroke: #002324;stroke-linecap: round;stroke-linejoin: round;stroke-width: 7px"/>
  <path d="M2277.09,1761.8h.82c6.59-.23,17.15-6.26,17.15-17.15a17.15,17.15,0,0,0-17.15-17.14c-.48,0-1,0-1.43.07l-.61-.07" style="fill: none;stroke: #002324;stroke-linecap: round;stroke-linejoin: round;stroke-width: 7px"/>
  <path d="M1153.68,2346.45l12.81-13.3a3.64,3.64,0,0,0,0-5l-9.78-10.16a3.33,3.33,0,0,0-4.84,0l-12.81,13.3-12.81-13.3a3.32,3.32,0,0,0-4.83,0l-9.79,10.16a3.66,3.66,0,0,0,0,5l12.81,13.3-12.81,13.3a3.64,3.64,0,0,0,0,5l9.79,10.16a3.32,3.32,0,0,0,4.83,0l12.81-13.3,12.81,13.3a3.33,3.33,0,0,0,4.84,0l9.78-10.16a3.62,3.62,0,0,0,0-5Z" style="fill: #353535;stroke: #353535;stroke-miterlimit: 10"/>
  <path d="M1153.68,2345.08l12.81-12.81a3.4,3.4,0,0,0,0-4.83l-9.78-9.79a3.43,3.43,0,0,0-4.84,0l-12.81,12.81-12.81-12.81a3.42,3.42,0,0,0-4.83,0l-9.79,9.79a3.42,3.42,0,0,0,0,4.83l12.81,12.81-12.81,12.81a3.43,3.43,0,0,0,0,4.84l9.79,9.78a3.4,3.4,0,0,0,4.83,0l12.81-12.81,12.81,12.81a3.42,3.42,0,0,0,4.84,0l9.78-9.78a3.42,3.42,0,0,0,0-4.84Z" style="fill: #fd3100;stroke: #353535;stroke-miterlimit: 10"/>
  <path d="M2360.68,1845.45l12.81-13.3a3.64,3.64,0,0,0,0-5l-9.78-10.16a3.33,3.33,0,0,0-4.84,0l-12.81,13.3-12.81-13.3a3.32,3.32,0,0,0-4.83,0l-9.79,10.16a3.66,3.66,0,0,0,0,5l12.81,13.3-12.81,13.3a3.64,3.64,0,0,0,0,5l9.79,10.16a3.32,3.32,0,0,0,4.83,0l12.81-13.3,12.81,13.3a3.33,3.33,0,0,0,4.84,0l9.78-10.16a3.62,3.62,0,0,0,0-5Z" style="fill: #353535;stroke: #353535;stroke-miterlimit: 10"/>
  <path d="M2360.68,1844.08l12.81-12.81a3.4,3.4,0,0,0,0-4.83l-9.78-9.79a3.43,3.43,0,0,0-4.84,0l-12.81,12.81-12.81-12.81a3.42,3.42,0,0,0-4.83,0l-9.79,9.79a3.42,3.42,0,0,0,0,4.83l12.81,12.81-12.81,12.81a3.43,3.43,0,0,0,0,4.84l9.79,9.78a3.4,3.4,0,0,0,4.83,0l12.81-12.81,12.81,12.81a3.42,3.42,0,0,0,4.84,0l9.78-9.78a3.42,3.42,0,0,0,0-4.84Z" style="fill: #fd3100;stroke: #353535;stroke-miterlimit: 10"/>
  <path d="M1439.68,1805.45l12.81-13.3a3.64,3.64,0,0,0,0-5l-9.78-10.16a3.33,3.33,0,0,0-4.84,0l-12.81,13.3-12.81-13.3a3.32,3.32,0,0,0-4.83,0l-9.79,10.16a3.66,3.66,0,0,0,0,5l12.81,13.3-12.81,13.3a3.64,3.64,0,0,0,0,5l9.79,10.16a3.32,3.32,0,0,0,4.83,0l12.81-13.3,12.81,13.3a3.33,3.33,0,0,0,4.84,0l9.78-10.16a3.62,3.62,0,0,0,0-5Z" style="fill: #353535;stroke: #353535;stroke-miterlimit: 10"/>
  <path d="M1439.68,1804.08l12.81-12.81a3.4,3.4,0,0,0,0-4.83l-9.78-9.79a3.43,3.43,0,0,0-4.84,0l-12.81,12.81-12.81-12.81a3.42,3.42,0,0,0-4.83,0l-9.79,9.79a3.42,3.42,0,0,0,0,4.83l12.81,12.81-12.81,12.81a3.43,3.43,0,0,0,0,4.84l9.79,9.78a3.4,3.4,0,0,0,4.83,0l12.81-12.81,12.81,12.81a3.42,3.42,0,0,0,4.84,0l9.78-9.78a3.42,3.42,0,0,0,0-4.84Z" style="fill: #fd3100;stroke: #353535;stroke-miterlimit: 10"/>
  <path d="M1153.68,2618.45l12.81-13.3a3.64,3.64,0,0,0,0-5l-9.78-10.16a3.33,3.33,0,0,0-4.84,0l-12.81,13.3-12.81-13.3a3.32,3.32,0,0,0-4.83,0l-9.79,10.16a3.66,3.66,0,0,0,0,5l12.81,13.3-12.81,13.3a3.64,3.64,0,0,0,0,5l9.79,10.16a3.32,3.32,0,0,0,4.83,0l12.81-13.3,12.81,13.3a3.33,3.33,0,0,0,4.84,0l9.78-10.16a3.62,3.62,0,0,0,0-5Z" style="fill: #353535;stroke: #353535;stroke-miterlimit: 10"/>
  <path d="M1153.68,2617.08l12.81-12.81a3.4,3.4,0,0,0,0-4.83l-9.78-9.79a3.43,3.43,0,0,0-4.84,0l-12.81,12.81-12.81-12.81a3.42,3.42,0,0,0-4.83,0l-9.79,9.79a3.42,3.42,0,0,0,0,4.83l12.81,12.81-12.81,12.81a3.43,3.43,0,0,0,0,4.84l9.79,9.78a3.4,3.4,0,0,0,4.83,0l12.81-12.81,12.81,12.81a3.42,3.42,0,0,0,4.84,0l9.78-9.78a3.42,3.42,0,0,0,0-4.84Z" style="fill: #fd3100;stroke: #353535;stroke-miterlimit: 10"/>
  <rect x="1466.91" y="1982" width="996" height="996" rx="43.98" ry="43.98" transform="translate(4444.91 515.09) rotate(90)" style="fill: #002324"/>
  <rect x="1470.68" y="1982" width="988.45" height="995.53" rx="32.83" ry="32.83" style="fill: none;stroke-miterlimit: 10;stroke-width: 15px;stroke: url(#Градієнт_без_назви_5-12)"/>
  <g>
    <rect x="1657.91" y="1887" width="614" height="110" rx="21.38" ry="21.38" style="fill: url(#Градієнт_без_назви_5-13)"/>
    <path d="M2250.53,1892a16.38,16.38,0,0,1,16.38,16.38v67.24a16.38,16.38,0,0,1-16.38,16.38H1679.29a16.38,16.38,0,0,1-16.38-16.38v-67.24a16.38,16.38,0,0,1,16.38-16.38h571.24m0-10H1679.29a26.4,26.4,0,0,0-26.38,26.38v67.24a26.4,26.4,0,0,0,26.38,26.38h571.24a26.41,26.41,0,0,0,26.38-26.38v-67.24a26.41,26.41,0,0,0-26.38-26.38Z" style="fill: #002324"/>
  </g>
  <circle cx="1550" cy="1789" r="44.5" style="fill: #002324;stroke-miterlimit: 10;stroke-width: 15px;stroke: url(#Градієнт_без_назви_9)"/>
  <circle cx="1550" cy="1789" r="37" style="fill: #9e2700"/>
  <circle cx="1550" cy="1789" r="33" style="fill: #d51900"/>
  <path d="M1550,1757a33,33,0,0,1,33,32.5c0-.17,0-.33,0-.5a33,33,0,0,0-66,0c0,.17,0,.33,0,.5A33,33,0,0,1,1550,1757Z" style="fill: #ff9"/>
  <path d="M1561.79,1789.42l10.5-10.9a3,3,0,0,0,0-4.11l-8-8.33a2.73,2.73,0,0,0-4,0l-10.5,10.9-10.5-10.9a2.72,2.72,0,0,0-4,0l-8,8.33a3,3,0,0,0,0,4.11l10.5,10.9-10.5,10.9a3,3,0,0,0,0,4.11l8,8.33a2.72,2.72,0,0,0,4,0l10.5-10.9,10.5,10.9a2.73,2.73,0,0,0,4,0l8-8.33a3,3,0,0,0,0-4.11Z" style="fill: #353535;stroke: #353535;stroke-miterlimit: 10"/>
  <path d="M1561.79,1788.3l10.5-10.5a2.79,2.79,0,0,0,0-4l-8-8a2.82,2.82,0,0,0-4,0l-10.5,10.5-10.5-10.5a2.81,2.81,0,0,0-4,0l-8,8a2.81,2.81,0,0,0,0,4l10.5,10.5-10.5,10.5a2.81,2.81,0,0,0,0,4l8,8a2.79,2.79,0,0,0,4,0l10.5-10.5,10.5,10.5a2.8,2.8,0,0,0,4,0l8-8a2.79,2.79,0,0,0,0-4Z" style="fill: url(#Градієнт_без_назви_9-2)"/>
  <path d="M1115.9,2843.68a30.11,30.11,0,0,0-47.43-16.48,38,38,0,1,0-74.17,13.87,36.06,36.06,0,0,0-32.3,35.87h0A36.05,36.05,0,0,0,998.06,2913h103.88a36.05,36.05,0,0,0,36.06-36.06h0A36.08,36.08,0,0,0,1115.9,2843.68Z" style="fill: #ff9"/>
  <path d="M1062.89,2866.43l11.23-11.67a3.2,3.2,0,0,0,0-4.4l-8.58-8.91a2.93,2.93,0,0,0-4.24,0l-11.24,11.67-11.23-11.67a2.93,2.93,0,0,0-4.24,0l-8.59,8.91a3.2,3.2,0,0,0,0,4.4l11.24,11.67L1026,2878.09a3.21,3.21,0,0,0,0,4.41l8.59,8.9a2.91,2.91,0,0,0,4.24,0l11.23-11.66,11.24,11.66a2.91,2.91,0,0,0,4.24,0l8.58-8.9a3.21,3.21,0,0,0,0-4.41Z" style="fill: #353535;stroke: #353535;stroke-miterlimit: 10"/>
  <path d="M1062.89,2865.23l11.23-11.23a3,3,0,0,0,0-4.25l-8.58-8.58a3,3,0,0,0-4.24,0l-11.24,11.24-11.23-11.24a3,3,0,0,0-4.24,0l-8.59,8.58a3,3,0,0,0,0,4.25l11.24,11.23L1026,2876.47a3,3,0,0,0,0,4.24l8.59,8.58a3,3,0,0,0,4.24,0l11.23-11.24,11.24,11.24a3,3,0,0,0,4.24,0l8.58-8.58a3,3,0,0,0,0-4.24Z" style="fill: #fd3100;stroke: #353535;stroke-miterlimit: 10"/>
  <rect x="2195.24" y="420.07" width="205.74" height="203.29" rx="22.98" ry="22.98" style="fill: url(#Градієнт_без_назви_5-14)"/>
  <path d="M2375.68,421.3a25.3,25.3,0,0,1,25.3,25.3V599.29a25.3,25.3,0,0,1-25.3,25.3H2220.54a25.3,25.3,0,0,1-25.3-25.3V446.6a25.3,25.3,0,0,1,25.3-25.3h155.14m0-2H2220.54a27.34,27.34,0,0,0-27.3,27.3V599.29a27.34,27.34,0,0,0,27.3,27.3h155.14a27.33,27.33,0,0,0,27.3-27.3V446.6a27.33,27.33,0,0,0-27.3-27.3Z" style="fill: #353535"/>
  <path d="M2375.88,596.42H2220.35a25.11,25.11,0,0,1-25.11-25.1v24.49a25.11,25.11,0,0,0,25.11,25.11h155.53a25.11,25.11,0,0,0,25.1-25.11V571.32A25.1,25.1,0,0,1,2375.88,596.42Z" style="fill: url(#Градієнт_без_назви_6-10)"/>
  <path d="M2375.88,600.1H2220.35A25.11,25.11,0,0,1,2195.24,575v24.5a25.11,25.11,0,0,0,25.11,25.1h155.53a25.1,25.1,0,0,0,25.1-25.1V575A25.11,25.11,0,0,1,2375.88,600.1Z" style="fill: #fc8601"/>
  <rect x="1217.24" y="2763.07" width="205.74" height="203.29" rx="22.98" ry="22.98" style="fill: url(#Градієнт_без_назви_5-15)"/>
  <path d="M1397.68,2764.3a25.3,25.3,0,0,1,25.3,25.3v152.69a25.3,25.3,0,0,1-25.3,25.3H1242.54a25.3,25.3,0,0,1-25.3-25.3V2789.6a25.3,25.3,0,0,1,25.3-25.3h155.14m0-2H1242.54a27.34,27.34,0,0,0-27.3,27.3v152.69a27.34,27.34,0,0,0,27.3,27.3h155.14a27.33,27.33,0,0,0,27.3-27.3V2789.6a27.33,27.33,0,0,0-27.3-27.3Z" style="fill: #353535"/>
  <path d="M1397.88,2939.42H1242.35a25.11,25.11,0,0,1-25.11-25.1v24.49a25.11,25.11,0,0,0,25.11,25.11h155.53a25.11,25.11,0,0,0,25.1-25.11v-24.49A25.1,25.1,0,0,1,1397.88,2939.42Z" style="fill: url(#Градієнт_без_назви_6-11)"/>
  <path d="M1397.88,2943.1H1242.35a25.11,25.11,0,0,1-25.11-25.11v24.5a25.11,25.11,0,0,0,25.11,25.1h155.53a25.1,25.1,0,0,0,25.1-25.1V2918A25.11,25.11,0,0,1,1397.88,2943.1Z" style="fill: #fc8601"/>
  <path d="M1387.9,2839.68a30.11,30.11,0,0,0-47.43-16.48,38,38,0,1,0-74.17,13.87,36.06,36.06,0,0,0-32.3,35.87h0a36.05,36.05,0,0,0,36.06,36.06h103.88a36.05,36.05,0,0,0,36.06-36.06h0A36.08,36.08,0,0,0,1387.9,2839.68Z" style="fill: #ff9"/>
  <path d="M1352.85,2843.62h0a8.55,8.55,0,0,0-12.07.86l-20.79,24-15.22-13.19a8,8,0,0,0-11.29.8h0a8,8,0,0,0,.81,11.29l21.68,18.8h0l.42.36a8,8,0,0,0,11.29-.8h0l.17-.22.19-.2,25.67-29.61A8.56,8.56,0,0,0,1352.85,2843.62Z" style="fill: url(#Градієнт_без_назви_5-16)"/>
  <circle cx="2303" cy="462" r="10" style="fill: #002324"/>
  <g>
    <path d="M2299.26,583.08a13.7,13.7,0,0,1-8-2.17c-6.4-4.42-6.71-15-5.22-29.46a246.66,246.66,0,0,1,6.86-36.69c2.34-9.34,3.76-15,1.33-16.86a3.55,3.55,0,0,0-2.27-.67c-3.36,0-9,2.75-16.63,8.18a.52.52,0,0,1-.29.09.57.57,0,0,1-.28-.08.52.52,0,0,1-.21-.53c.79-3.61,3.55-12.62,12.22-18.31,4.1-2.69,10.6-5.41,15.88-5.41a9.33,9.33,0,0,1,6.21,1.95c6.25,5.31,3.09,21.18-.91,41.26-2.45,12.3-5.22,26.25-5.91,39.15-.12,2.32-.45,8.5,2.77,10.55a4.84,4.84,0,0,0,2.63.7h0c3.38,0,7.65-2.54,10.47-4.21,1.88-1.12,2.81-1.66,3.41-1.66a.7.7,0,0,1,.61.3c.23.31.19.77-.13,1.45-1.4,2.94-9.08,11.69-20.24,12.34C2300.88,583,2300.11,583.08,2299.26,583.08Z" style="fill: #002324"/>
    <path d="M2302.61,481.67a8.91,8.91,0,0,1,5.89,1.83c9.9,8.42-5.23,47-7,80-.15,2.86-.38,8.85,3,11a5.3,5.3,0,0,0,2.91.78c5.34,0,12.45-5.87,13.88-5.87a.23.23,0,0,1,.21.09c.76,1-7.57,12.28-20,13-.64,0-1.4.08-2.24.08a13.41,13.41,0,0,1-7.76-2.08c-5.92-4.09-6.57-13.79-5-29,3.44-33.4,13.1-50.05,8-54a4,4,0,0,0-2.58-.77c-2.88,0-7.91,1.9-16.92,8.27.51-2.36,2.89-12,12-18,3.86-2.53,10.33-5.33,15.61-5.33m0-1c-5.38,0-12,2.76-16.16,5.49-8.82,5.8-11.63,15-12.43,18.63a1,1,0,0,0,.43,1,1,1,0,0,0,.55.17,1,1,0,0,0,.58-.18c7.59-5.37,13.08-8.09,16.34-8.09a3.1,3.1,0,0,1,2,.56c2.16,1.68.7,7.52-1.51,16.35a244.84,244.84,0,0,0-6.87,36.76c-1.52,14.66-1.17,25.36,5.42,29.92a14.2,14.2,0,0,0,8.33,2.26c.87,0,1.66,0,2.3-.08,11.38-.66,19.23-9.61,20.66-12.62a2,2,0,0,0,.09-2,1.26,1.26,0,0,0-1-.5c-.73,0-1.65.53-3.66,1.73-2.78,1.64-7,4.14-10.22,4.14a4.33,4.33,0,0,1-2.37-.62c-3-1.9-2.66-7.86-2.54-10.11.69-12.86,3.46-26.79,5.9-39.07,4-20.25,7.21-36.24.75-41.74a9.8,9.8,0,0,0-6.54-2.07Z" style="fill: #002324"/>
  </g>
  <path d="M2040.25,486h-74.5a8.75,8.75,0,0,0-8.75,8.75v44.5a8.75,8.75,0,0,0,8.75,8.75h58.75a40.34,40.34,0,0,1,24.5,14V494.75A8.75,8.75,0,0,0,2040.25,486Z" style="fill: #002324"/>
  <g>
    <path d="M2028.47,457.91h55.06a6.47,6.47,0,0,1,6.47,6.47v32.89a6.47,6.47,0,0,1-6.47,6.47h-43.42A29.72,29.72,0,0,0,2022,514.09V464.38A6.47,6.47,0,0,1,2028.47,457.91Z" style="fill: #002324"/>
    <path d="M2083.53,457.91a6.47,6.47,0,0,1,6.47,6.47v32.89a6.47,6.47,0,0,1-6.47,6.47h-43.42A29.72,29.72,0,0,0,2022,514.09V464.38a6.47,6.47,0,0,1,6.47-6.47h55.06m0-5h-55.06A11.48,11.48,0,0,0,2017,464.38v49.71a5,5,0,0,0,8.84,3.2,24.87,24.87,0,0,1,14.7-8.55h43A11.48,11.48,0,0,0,2095,497.27V464.38a11.48,11.48,0,0,0-11.47-11.47Z" style="fill: url(#Градієнт_без_назви_3)"/>
  </g>
  <path d="M2050,471.2c.09-.33,1.06-3.77,4.3-4.86,2.85-1,6.42.24,7.44,2.57.71,1.6,0,3.32-.57,4.87-1.1,2.84-2.53,3.42-3.72,5.73a12.18,12.18,0,0,0-1.15,6.87" style="fill: none;stroke-linecap: round;stroke-linejoin: round;stroke-width: 5px;stroke: url(#Градієнт_без_назви_5-17)"/>
  <circle cx="2056.16" cy="493.4" r="2.43" style="fill: url(#Градієнт_без_назви_5-18)"/>
  <circle cx="1974" cy="518" r="4" style="fill: url(#Градієнт_без_назви_3-2)"/>
  <circle cx="1992" cy="518" r="4" style="fill: url(#Градієнт_без_назви_3-3)"/>
  <circle cx="2010" cy="518" r="4" style="fill: url(#Градієнт_без_назви_3-4)"/>
  <rect x="44.61" y="82" width="1080" height="1920" style="fill: url(#Градієнт_без_назви_2)"/>
  <path d="M888.74,177.7a48.63,48.63,0,0,1-.33-27.34c.33-1.14,7.34-24.05,30.33-32,20.18-7,41.63,1.39,54,15.67,1,1.13,18.46,22,11,45.67-8.54,27.17-45,42.61-66.66,30.66a35.72,35.72,0,0,1-17.83-30.68c.18-20.5,20.53-38.4,34.24-36.24,6.85,1.08,14.32,7.53,13.38,11.27-.55,2.22-4,3.3-6.84,3.85-10.07-.91-17.84,4.82-18.62,10.8-.91,6.93,7.64,13.24,14.67,14.34,11.22,1.75,23.91-9,25.33-21.34,1.45-12.58-8.89-26-24.67-28.33a45.9,45.9,0,0,0-16.66,3.33C896.54,147,889.72,173.63,888.74,177.7Z" style="opacity: 0.1"/>
  <path d="M358.57,177.7a48.63,48.63,0,0,1-.33-27.34c.33-1.14,7.34-24.05,30.33-32,20.18-7,41.63,1.39,54,15.67,1,1.13,18.46,22,11,45.67-8.54,27.17-44.95,42.61-66.66,30.66a35.75,35.75,0,0,1-17.83-30.68c.18-20.5,20.53-38.4,34.24-36.24,6.85,1.08,14.32,7.53,13.38,11.27-.55,2.22-4,3.3-6.84,3.85-10.07-.91-17.83,4.82-18.62,10.8-.91,6.93,7.64,13.24,14.67,14.34,11.22,1.75,23.91-9,25.33-21.34,1.45-12.58-8.89-26-24.67-28.33a45.9,45.9,0,0,0-16.66,3.33C366.37,147,359.55,173.63,358.57,177.7Z" style="opacity: 0.1"/>
  <path d="M66,600.18a48.6,48.6,0,0,1-.33-27.33c.32-1.14,7.34-24.05,30.33-32,20.18-7,41.62,1.38,54,15.67,1,1.13,18.45,22,11,45.66-8.54,27.18-44.95,42.62-66.67,30.67a35.73,35.73,0,0,1-17.82-30.68c.18-20.51,20.52-38.4,34.24-36.24,6.85,1.08,14.32,7.52,13.38,11.26-.56,2.22-4,3.31-6.85,3.86-10.07-.91-17.83,4.81-18.61,10.8-.91,6.92,7.64,13.23,14.66,14.33,11.23,1.76,23.91-9,25.34-21.33,1.44-12.59-8.89-26-24.67-28.33a45.78,45.78,0,0,0-16.67,3.33C73.75,569.46,66.92,596.11,66,600.18Z" style="opacity: 0.1"/>
  <path d="M185.25,811.61a48.67,48.67,0,0,1-.34-27.33c.33-1.14,7.34-24,30.34-32,20.17-7,41.62,1.38,54,15.67,1,1.13,18.45,21.95,11,45.66-8.55,27.18-45,42.62-66.67,30.67a35.76,35.76,0,0,1-17.83-30.68c.18-20.51,20.53-38.4,34.24-36.24,6.85,1.08,14.32,7.52,13.39,11.26-.56,2.23-4,3.31-6.85,3.86-10.07-.91-17.83,4.82-18.62,10.8-.91,6.92,7.64,13.24,14.67,14.33,11.23,1.76,23.91-9,25.33-21.33,1.45-12.58-8.88-26-24.66-28.33a45.7,45.7,0,0,0-16.67,3.33C193,780.89,186.22,807.55,185.25,811.61Z" style="opacity: 0.1"/>
  <path d="M303.77,1022.42a48.6,48.6,0,0,1-.33-27.33c.33-1.14,7.34-24.05,30.33-32,20.18-7,41.63,1.38,54,15.66,1,1.13,18.46,22,11,45.67-8.54,27.17-44.95,42.61-66.66,30.67a35.77,35.77,0,0,1-17.83-30.68c.18-20.51,20.53-38.4,34.24-36.24,6.85,1.08,14.32,7.52,13.38,11.26-.55,2.22-4,3.3-6.84,3.85-10.07-.91-17.83,4.82-18.62,10.81-.91,6.92,7.64,13.23,14.67,14.33,11.23,1.75,23.91-9,25.33-21.33,1.45-12.59-8.89-26-24.67-28.34a45.72,45.72,0,0,0-16.66,3.34C311.57,991.69,304.75,1018.35,303.77,1022.42Z" style="opacity: 0.1"/>
  <path d="M705.6,150.16H686.3v-19.3a15,15,0,0,0-30,0v19.3H637a15,15,0,0,0-15,15h0a15,15,0,0,0,15,15h19.3v19.3a15,15,0,1,0,30,0v-19.3h19.3a15,15,0,0,0,15-15h0A15,15,0,0,0,705.6,150.16Z" style="opacity: 0.1"/>
  <path d="M174.53,149.91h-19.3v-19.3a15,15,0,1,0-30,0v19.3h-19.3a15,15,0,0,0-15,15h0a15,15,0,0,0,15,15h19.3v19.3a15,15,0,0,0,30,0V179.9h19.3a15,15,0,0,0,15-15h0A15,15,0,0,0,174.53,149.91Z" style="opacity: 0.1"/>
  <path d="M1007.47,389a48.78,48.78,0,0,1-.33-27.33c.33-1.14,7.34-24.05,30.33-32,20.18-7,41.63,1.38,54,15.67,1,1.13,18.46,22,11,45.66-8.54,27.18-45,42.62-66.66,30.67A35.76,35.76,0,0,1,1018,391c.18-20.51,20.53-38.4,34.24-36.24,6.85,1.08,14.32,7.52,13.39,11.26-.56,2.22-4,3.31-6.85,3.86-10.07-.91-17.83,4.81-18.62,10.8-.91,6.92,7.64,13.23,14.67,14.33,11.23,1.76,23.91-9,25.33-21.33,1.45-12.59-8.88-26-24.67-28.33a45.69,45.69,0,0,0-16.66,3.33C1015.27,358.27,1008.45,384.93,1007.47,389Z" style="opacity: 0.1"/>
  <path d="M477.27,389a48.78,48.78,0,0,1-.33-27.33c.33-1.14,7.34-24.05,30.33-32,20.18-7,41.63,1.38,54,15.66,1,1.13,18.46,22,11,45.67-8.54,27.18-44.95,42.61-66.66,30.67A35.76,35.76,0,0,1,487.78,391c.18-20.51,20.53-38.4,34.24-36.24,6.85,1.08,14.32,7.52,13.38,11.26-.55,2.22-4,3.3-6.84,3.85-10.07-.9-17.83,4.82-18.62,10.81-.91,6.92,7.64,13.23,14.67,14.33,11.23,1.76,23.91-9,25.33-21.33,1.45-12.59-8.88-26-24.67-28.34a45.93,45.93,0,0,0-16.66,3.34C485.07,358.24,478.25,384.9,477.27,389Z" style="opacity: 0.1"/>
  <path d="M596.24,600.43a48.6,48.6,0,0,1-.33-27.33c.33-1.14,7.34-24.05,30.33-32,20.18-7,41.63,1.38,54,15.67,1,1.13,18.46,22,11,45.66-8.54,27.18-45,42.62-66.66,30.67-10.48-5.76-17.94-18.12-17.83-30.68.18-20.51,20.53-38.4,34.24-36.24,6.85,1.08,14.32,7.52,13.38,11.26-.55,2.22-4,3.31-6.84,3.86-10.07-.91-17.84,4.81-18.62,10.8-.91,6.92,7.64,13.23,14.67,14.33,11.22,1.76,23.91-9,25.33-21.33,1.45-12.59-8.89-26-24.67-28.33a45.69,45.69,0,0,0-16.66,3.33C604,569.71,597.22,596.36,596.24,600.43Z" style="opacity: 0.1"/>
  <path d="M715.24,811.61a48.6,48.6,0,0,1-.33-27.33c.33-1.14,7.34-24,30.33-32,20.18-7,41.63,1.38,54,15.67,1,1.13,18.46,21.95,11,45.66-8.54,27.18-45,42.62-66.66,30.67-10.48-5.76-17.94-18.12-17.83-30.68.18-20.51,20.53-38.4,34.24-36.24,6.85,1.08,14.32,7.52,13.38,11.26-.55,2.23-4,3.31-6.84,3.86-10.07-.91-17.84,4.82-18.62,10.8-.91,6.92,7.64,13.24,14.67,14.33,11.22,1.76,23.91-9,25.33-21.33,1.45-12.58-8.89-26-24.67-28.33a45.69,45.69,0,0,0-16.66,3.33C723,780.89,716.22,807.55,715.24,811.61Z" style="opacity: 0.1"/>
  <path d="M952.52,1233.35a48.67,48.67,0,0,1-.34-27.33c.33-1.14,7.35-24,30.34-32,20.17-7,41.62,1.38,54,15.67,1,1.13,18.45,22,11,45.66-8.55,27.18-45,42.62-66.67,30.67A35.76,35.76,0,0,1,963,1235.34c.18-20.51,20.53-38.4,34.24-36.24,6.86,1.08,14.32,7.52,13.39,11.27-.56,2.22-4,3.3-6.85,3.85-10.07-.91-17.83,4.82-18.62,10.8-.9,6.92,7.64,13.24,14.67,14.33,11.23,1.76,23.91-9,25.33-21.33,1.45-12.58-8.88-26-24.66-28.33a46,46,0,0,0-16.67,3.33C960.32,1202.63,953.49,1229.29,952.52,1233.35Z" style="opacity: 0.1"/>
  <path d="M1071.49,1444.82a48.7,48.7,0,0,1-.34-27.34c.33-1.14,7.34-24,30.34-32,20.17-7,41.62,1.39,54,15.67,1,1.13,18.45,22,11,45.67-8.55,27.17-45,42.61-66.67,30.66A35.75,35.75,0,0,1,1082,1446.8c.18-20.5,20.53-38.39,34.24-36.24,6.85,1.08,14.32,7.53,13.39,11.27-.56,2.22-4,3.3-6.85,3.85-10.07-.91-17.83,4.82-18.62,10.8-.91,6.93,7.64,13.24,14.67,14.34,11.23,1.75,23.91-9,25.33-21.34,1.45-12.58-8.88-26-24.66-28.33a45.91,45.91,0,0,0-16.67,3.33C1079.28,1414.09,1072.46,1440.75,1071.49,1444.82Z" style="opacity: 0.1"/>
  <path d="M833.44,1022a48.67,48.67,0,0,1-.34-27.33c.33-1.14,7.35-24,30.34-32,20.18-7,41.62,1.38,54,15.67,1,1.13,18.45,21.95,11,45.66-8.54,27.18-45,42.62-66.67,30.67A35.73,35.73,0,0,1,844,1024c.18-20.51,20.52-38.4,34.24-36.24,6.85,1.08,14.32,7.52,13.38,11.26-.56,2.22-4,3.31-6.85,3.86-10.07-.91-17.83,4.81-18.62,10.8-.9,6.92,7.65,13.23,14.67,14.33,11.23,1.76,23.91-9,25.33-21.33,1.45-12.59-8.88-26-24.66-28.33a45.78,45.78,0,0,0-16.67,3.33C841.24,991.28,834.41,1017.93,833.44,1022Z" style="opacity: 0.1"/>
  <path d="M541.63,1444.81a48.6,48.6,0,0,1-.33-27.33c.33-1.14,7.34-24,30.33-32,20.18-7,41.63,1.38,54,15.66,1,1.13,18.46,22,11,45.67-8.54,27.17-45,42.61-66.66,30.67a35.75,35.75,0,0,1-17.83-30.68c.18-20.51,20.53-38.4,34.24-36.24,6.85,1.08,14.32,7.52,13.38,11.26-.55,2.22-4,3.3-6.84,3.85-10.08-.91-17.84,4.82-18.62,10.81-.91,6.92,7.64,13.23,14.67,14.33,11.22,1.75,23.91-9,25.33-21.33,1.45-12.59-8.89-26-24.67-28.34a45.72,45.72,0,0,0-16.66,3.34C549.43,1414.08,542.61,1440.74,541.63,1444.81Z" style="opacity: 0.1"/>
  <path d="M660.6,1656.27a48.6,48.6,0,0,1-.33-27.33c.33-1.14,7.34-24,30.33-32,20.18-7,41.62,1.38,54,15.66,1,1.13,18.45,22,11,45.67-8.54,27.18-45,42.61-66.67,30.67-10.47-5.76-17.93-18.12-17.82-30.68.18-20.51,20.53-38.4,34.24-36.24,6.85,1.08,14.32,7.52,13.38,11.26-.56,2.22-4,3.3-6.85,3.85-10.07-.9-17.83,4.82-18.61,10.81-.91,6.92,7.64,13.23,14.66,14.33,11.23,1.76,23.92-9,25.34-21.33,1.44-12.59-8.89-26-24.67-28.34a46,46,0,0,0-16.67,3.34C668.4,1625.54,661.58,1652.2,660.6,1656.27Z" style="opacity: 0.1"/>
  <path d="M779.6,1867.45a48.6,48.6,0,0,1-.33-27.33c.33-1.14,7.34-24,30.33-32,20.18-7,41.62,1.38,54,15.66,1,1.13,18.45,22,11,45.67-8.54,27.18-45,42.62-66.67,30.67-10.47-5.76-17.93-18.12-17.82-30.68.18-20.51,20.53-38.4,34.24-36.24,6.85,1.08,14.32,7.52,13.38,11.26-.56,2.22-4,3.31-6.85,3.85-10.07-.9-17.83,4.82-18.61,10.81-.91,6.92,7.64,13.23,14.66,14.33,11.23,1.76,23.92-9,25.34-21.33,1.44-12.59-8.89-26-24.67-28.34a46,46,0,0,0-16.67,3.34C787.4,1836.72,780.58,1863.38,779.6,1867.45Z" style="opacity: 0.1"/>
  <path d="M422.55,1233.46a48.64,48.64,0,0,1-.33-27.34c.33-1.14,7.34-24,30.33-32,20.18-7,41.63,1.39,54,15.67,1,1.13,18.46,22,11,45.67-8.54,27.17-44.95,42.61-66.66,30.66a35.75,35.75,0,0,1-17.83-30.68c.18-20.5,20.53-38.4,34.24-36.24,6.85,1.08,14.32,7.53,13.38,11.27-.55,2.22-4,3.3-6.84,3.85-10.07-.91-17.83,4.82-18.62,10.8-.91,6.93,7.64,13.24,14.67,14.34,11.23,1.75,23.91-9,25.33-21.34,1.45-12.58-8.89-26-24.67-28.33a45.9,45.9,0,0,0-16.66,3.33C430.35,1202.73,423.53,1229.39,422.55,1233.46Z" style="opacity: 0.1"/>
  <path d="M10.17,1444.81a48.6,48.6,0,0,1-.33-27.33c.32-1.14,7.34-24,30.33-32,20.18-7,41.62,1.38,54,15.66,1,1.13,18.45,22,11,45.67-8.54,27.17-44.95,42.61-66.67,30.67a35.76,35.76,0,0,1-17.82-30.68c.18-20.51,20.53-38.4,34.24-36.24,6.85,1.08,14.32,7.52,13.38,11.26-.56,2.22-4,3.3-6.85,3.85-10.07-.91-17.83,4.82-18.61,10.81-.91,6.92,7.64,13.23,14.66,14.33,11.23,1.75,23.92-9,25.34-21.33,1.44-12.59-8.89-26-24.67-28.34a45.81,45.81,0,0,0-16.67,3.34C18,1414.08,11.15,1440.74,10.17,1444.81Z" style="opacity: 0.1"/>
  <path d="M129.14,1656.27a48.6,48.6,0,0,1-.33-27.33c.32-1.14,7.34-24,30.33-32,20.18-7,41.62,1.38,54,15.66,1,1.13,18.45,22,11,45.67-8.54,27.18-44.95,42.61-66.67,30.67a35.73,35.73,0,0,1-17.82-30.68c.18-20.51,20.52-38.4,34.24-36.24,6.85,1.08,14.32,7.52,13.38,11.26-.56,2.22-4,3.3-6.85,3.85-10.07-.9-17.83,4.82-18.61,10.81-.91,6.92,7.64,13.23,14.66,14.33,11.23,1.76,23.91-9,25.34-21.33,1.44-12.59-8.89-26-24.67-28.34a46,46,0,0,0-16.67,3.34C136.94,1625.54,130.11,1652.2,129.14,1656.27Z" style="opacity: 0.1"/>
  <path d="M248.14,1867.45a48.6,48.6,0,0,1-.33-27.33c.32-1.14,7.34-24,30.33-32,20.18-7,41.62,1.38,54,15.66,1,1.13,18.45,22,11,45.67-8.54,27.18-44.95,42.62-66.67,30.67a35.73,35.73,0,0,1-17.82-30.68c.18-20.51,20.52-38.4,34.24-36.24,6.85,1.08,14.32,7.52,13.38,11.26-.56,2.22-4,3.31-6.85,3.85-10.07-.9-17.83,4.82-18.61,10.81-.91,6.92,7.64,13.23,14.66,14.33,11.23,1.76,23.91-9,25.34-21.33,1.44-12.59-8.89-26-24.67-28.34a46,46,0,0,0-16.67,3.34C255.94,1836.72,249.11,1863.38,248.14,1867.45Z" style="opacity: 0.1"/>
  <path d="M824.19,361.46H804.9v-19.3a15,15,0,1,0-30,0v19.3H755.6a15,15,0,0,0-15,15h0a15,15,0,0,0,15,15h19.3v19.3a15,15,0,0,0,30,0v-19.3h19.29a15,15,0,0,0,15-15h0A15,15,0,0,0,824.19,361.46Z" style="opacity: 0.1"/>
  <path d="M943.32,572.77H924v-19.3a15,15,0,0,0-30,0v19.3h-19.3a15,15,0,0,0-15,15h0a15,15,0,0,0,15,15H894v19.29a15,15,0,0,0,30,0V602.77h19.3a15,15,0,0,0,15-15h0A15,15,0,0,0,943.32,572.77Z" style="opacity: 0.1"/>
  <path d="M1062.19,784.07H1042.9v-19.3a15,15,0,1,0-30,0v19.3H993.6a15,15,0,0,0-15,15h0a15,15,0,0,0,15,15h19.3v19.3a15,15,0,1,0,30,0v-19.3h19.29a15,15,0,0,0,15-15h0A15,15,0,0,0,1062.19,784.07Z" style="opacity: 0.1"/>
  <path d="M1180.78,994.54h-19.3V975.25a15,15,0,0,0-30,0v19.29h-19.3a15,15,0,0,0-15,15h0a15,15,0,0,0,15,15h19.3v19.3a15,15,0,0,0,30,0v-19.3h19.3a15,15,0,0,0,15-15h0A15,15,0,0,0,1180.78,994.54Z" style="opacity: 0.1"/>
  <path d="M293.3,361.46H274v-19.3a15,15,0,0,0-30,0v19.3H224.71a15,15,0,0,0-15,15h0a15,15,0,0,0,15,15H244v19.3a15,15,0,0,0,30,0v-19.3h19.3a15,15,0,0,0,15-15h0A15,15,0,0,0,293.3,361.46Z" style="opacity: 0.1"/>
  <path d="M412.43,572.77h-19.3v-19.3a15,15,0,0,0-30,0v19.3h-19.3a15,15,0,0,0-15,15h0a15,15,0,0,0,15,15h19.3v19.29a15,15,0,0,0,30,0V602.77h19.3a15,15,0,0,0,15-15h0A15,15,0,0,0,412.43,572.77Z" style="opacity: 0.1"/>
  <path d="M531.22,784.07H511.93v-19.3a15,15,0,0,0-30,0v19.3h-19.3a15,15,0,0,0-15,15h0a15,15,0,0,0,15,15h19.3v19.3a15,15,0,0,0,30,0v-19.3h19.29a15,15,0,0,0,15-15h0A15,15,0,0,0,531.22,784.07Z" style="opacity: 0.1"/>
  <path d="M650.14,995.38h-19.3v-19.3a15,15,0,0,0-30,0v19.3H581.55a15,15,0,0,0-15,15h0a15,15,0,0,0,15,15h19.29v19.3a15,15,0,0,0,30,0v-19.3h19.3a15,15,0,0,0,15-15h0A15,15,0,0,0,650.14,995.38Z" style="opacity: 0.1"/>
  <path d="M768.4,1205.83H749.1v-19.3a15,15,0,0,0-30,0v19.3H699.8a15,15,0,0,0-15,15h0a15,15,0,0,0,15,15h19.3v19.3a15,15,0,0,0,30,0v-19.3h19.3a15,15,0,0,0,15-15h0A15,15,0,0,0,768.4,1205.83Z" style="opacity: 0.1"/>
  <path d="M887.17,1417.14h-19.3v-19.3a15,15,0,0,0-30,0v19.3h-19.3a15,15,0,0,0-15,15h0a15,15,0,0,0,15,15h19.3v19.3a15,15,0,0,0,30,0v-19.3h19.3a15,15,0,0,0,15-15h0A15,15,0,0,0,887.17,1417.14Z" style="opacity: 0.1"/>
  <path d="M1005.94,1628.57H986.65v-19.3a15,15,0,0,0-30,0v19.3h-19.3a15,15,0,0,0-15,15h0a15,15,0,0,0,15,15h19.3v19.3a15,15,0,0,0,30,0v-19.3h19.29a15,15,0,0,0,15-15h0A15,15,0,0,0,1005.94,1628.57Z" style="opacity: 0.1"/>
  <path d="M1124.72,1839.87h-19.3v-19.3a15,15,0,1,0-30,0v19.3h-19.3a15,15,0,0,0-15,15h0a15,15,0,0,0,15,15h19.3v19.3a15,15,0,0,0,30,0v-19.3h19.3a15,15,0,0,0,15-15h0A15,15,0,0,0,1124.72,1839.87Z" style="opacity: 0.1"/>
  <path d="M119.62,995.38h-19.3v-19.3a15,15,0,0,0-30,0v19.3H51a15,15,0,0,0-15,15h0a15,15,0,0,0,15,15h19.3v19.3a15,15,0,0,0,30,0v-19.3h19.3a15,15,0,0,0,15-15h0A15,15,0,0,0,119.62,995.38Z" style="opacity: 0.1"/>
  <path d="M237.87,1205.83h-19.3v-19.3a15,15,0,0,0-30,0v19.3h-19.3a15,15,0,0,0-15,15h0a15,15,0,0,0,15,15h19.3v19.3a15,15,0,0,0,30,0v-19.3h19.3a15,15,0,0,0,15-15h0A15,15,0,0,0,237.87,1205.83Z" style="opacity: 0.1"/>
  <path d="M356.64,1417.14H337.35v-19.3a15,15,0,0,0-30,0v19.3h-19.3a15,15,0,0,0-15,15h0a15,15,0,0,0,15,15h19.3v19.3a15,15,0,0,0,30,0v-19.3h19.29a15,15,0,0,0,15-15h0A15,15,0,0,0,356.64,1417.14Z" style="opacity: 0.1"/>
  <path d="M475.42,1628.57h-19.3v-19.3a15,15,0,0,0-30,0v19.3h-19.3a15,15,0,0,0-15,15h0a15,15,0,0,0,15,15h19.3v19.3a15,15,0,0,0,30,0v-19.3h19.3a15,15,0,0,0,15-15h0A15,15,0,0,0,475.42,1628.57Z" style="opacity: 0.1"/>
  <path d="M594.19,1839.87h-19.3v-19.3a15,15,0,0,0-30,0v19.3H525.6a15,15,0,0,0-15,15h0a15,15,0,0,0,15,15h19.29v19.3a15,15,0,0,0,30,0v-19.3h19.3a15,15,0,0,0,15-15h0A15,15,0,0,0,594.19,1839.87Z" style="opacity: 0.1"/>
  <rect x="757.92" y="709.24" width="15.5" height="15.5" style="fill: none"/>
  <path d="M1346.85,1786.62h0a8.55,8.55,0,0,0-12.07.86l-20.79,24-15.22-13.19a8,8,0,0,0-11.29.8h0a8,8,0,0,0,.81,11.29l21.68,18.8h0l.42.36a8,8,0,0,0,11.29-.8h0l.17-.22.19-.2,25.67-29.61A8.56,8.56,0,0,0,1346.85,1786.62Z" style="fill: #353535;stroke: #353535;stroke-miterlimit: 10"/>
  <path d="M1346.85,1783.62h0a8.55,8.55,0,0,0-12.07.86l-20.79,24-15.22-13.19a8,8,0,0,0-11.29.8h0a8,8,0,0,0,.81,11.29l21.68,18.8h0l.42.36a8,8,0,0,0,11.29-.8h0l.17-.22.19-.2,25.67-29.61A8.56,8.56,0,0,0,1346.85,1783.62Z" style="fill: #fd3100;stroke: #353535;stroke-miterlimit: 10"/>
</svg>
