<svg id="Шар_1" data-name="Шар 1" xmlns="http://www.w3.org/2000/svg" xmlns:xlink="http://www.w3.org/1999/xlink" viewBox="0 0 1423.18 1140.37">
  <defs>
    <linearGradient id="Градієнт_без_назви_4" data-name="Градієнт без назви 4" x1="205.3" y1="132" x2="440.3" y2="132" gradientUnits="userSpaceOnUse">
      <stop offset="0" stop-color="#ffb500"/>
      <stop offset="1" stop-color="#ffc000"/>
    </linearGradient>
    <linearGradient id="Градієнт_без_назви_4-2" x1="323.18" y1="121.13" x2="322.42" y2="142.87" xlink:href="#Градієнт_без_назви_4"/>
    <radialGradient id="Градієнт_без_назви_67" data-name="Градієнт без назви 67" cx="1249" cy="344" r="153" gradientTransform="translate(0 -4.53) scale(1 1.01)" gradientUnits="userSpaceOnUse">
      <stop offset="0.94" stop-color="#fff" stop-opacity="0"/>
      <stop offset="1" stop-color="#fff" stop-opacity="0.5"/>
    </radialGradient>
    <radialGradient id="Градієнт_без_назви_67-2" cx="101" cy="1225" r="63.59" gradientTransform="translate(0 -16.12) scale(1 1.01)" xlink:href="#Градієнт_без_назви_67"/>
  </defs>
  <title>head screen</title>
  <path d="M1250,155v.44c-18.25-.05-69.94,2.24-117.8,38.87-72.35,55.37-75.13,142.62-75.31,154.32.59,105.47,87.48,191.87,192.74,191.87,106.46,0,192.76-86.3,192.76-192.75S1356.29,155.2,1250,155Z" transform="translate(-19.2 -155)" style="fill: #ffff7b"/>
  <path d="M1249.57,160v.42c-17.69,0-67.76,2.18-114.13,37.67-70.1,53.64-72.8,138.18-73,149.52.57,102.18,84.76,185.89,186.74,185.89,103.15,0,186.76-83.61,186.76-186.75S1352.55,160.19,1249.57,160Z" transform="translate(-19.2 -155)" style="fill: #85390b"/>
  <circle cx="1230.02" cy="191.75" r="154" style="fill: #f88223;stroke: #1d1714;stroke-miterlimit: 10;stroke-width: 5px"/>
  <path d="M110,650a15.33,15.33,0,0,0-4,7,16,16,0,0,0,2,12l48,104a15.6,15.6,0,0,0,6,4c8.16,2.9,17-2.64,18.5-3.5,14.57-8.35,124.83-26.86,211.5-20.5,62.6,4.59,197.66,28.37,213,34,1,.37,5.2,2,9.5.5,6.22-2.17,8.8-9.47,10-13,16.42-48.49,16.1-49.18,19-56,6.08-14.3,9.8-29.8,18-43,.62-1,2.7-4.25,2-8-.79-4.25-4.75-7-7.5-8.5Z" transform="translate(-19.2 -155)" style="fill: #471c00"/>
  <path d="M117.89,644.14c-.85.65-6.94,5.26-7.71,6.19a2,2,0,0,0-.27.43,2.54,2.54,0,0,0,0,1.78,2.67,2.67,0,0,0,.15.32c.83,1.55,50.43,109.91,51.53,117.4a3.37,3.37,0,0,0,.83,1.89c1.58,1.68,4.91,1,5.37.9a8.11,8.11,0,0,0,1.67-.55c1.64-.78,91.48-34.55,215-33,131.14,1.64,223.93,42,224.9,42.44a2.26,2.26,0,0,0,.52.2,4.63,4.63,0,0,0,5-2.24,3.33,3.33,0,0,0,.3-.8c2.65-11.51,7.89-22.29,11.33-33.6,9-29.47,29.77-69,33-73a11.41,11.41,0,0,0,2-4,5.51,5.51,0,0,0,0-4,4.53,4.53,0,0,0-2-2l-191-35-215,5Z" transform="translate(-19.2 -155)" style="fill: #85390b"/>
  <path d="M116,652a6.4,6.4,0,0,1-.5-4.5c1.3-4.19,8-5.55,11-6,67.13-17.52,167.69-37,282-33,103.41,3.62,171.85,24.82,188,30A619,619,0,0,1,656,661a4.46,4.46,0,0,1,2.5,1.5,4.91,4.91,0,0,1-.09,5.74,3.1,3.1,0,0,1-2,1.38,2.1,2.1,0,0,1-.91-.12c-1-.33-7.22-.39-22,0,10.16,2.57,14.07,3.26,15.26,3.21A2.47,2.47,0,0,1,650,673a2.9,2.9,0,0,1,1.37,2.57,3.26,3.26,0,0,1-.88,2c-5.16,6-7.74,9.06-11.31,8.74a5.86,5.86,0,0,1-1.27-.26c-3.36-1-19.58-4.4-62.42-12.48,44.3,14,63.29,19.84,64.67,20a2.4,2.4,0,0,1,.87.27,3.84,3.84,0,0,1,1.06,4.89c-1.94,3.47-16.64,32.92-17.85,37.12a4.55,4.55,0,0,1-.6,1.28,4.35,4.35,0,0,1-3.54,2.05,3,3,0,0,1-.8-.13c-1.29-.41-13.12-2.51-42.81-7.45,29.41,8.86,41.46,12.28,42.55,12.29a1.59,1.59,0,0,1,.9.26,2.57,2.57,0,0,1,.72,2.55,3,3,0,0,1-.36.91c-1.47,2.39-10,23.82-10.52,28.52a2.87,2.87,0,0,1-.55,1.47,3.48,3.48,0,0,1-3.23,1.1,3.66,3.66,0,0,1-1.2-.42c-1.56-.92-43.86-15.71-91.31-25.68-62.44-13.12-118.6-14.72-131-15-49.65-1.12-124.26,2.45-213,27a4.79,4.79,0,0,1-4,0,4.53,4.53,0,0,1-2-2c-4.73-14.23-7.93-22.42-10-26-.44-.76-1.9-3.16-1-5a4.53,4.53,0,0,1,3-2c3.4-.92,10.7-4.37,23-11a71.08,71.08,0,0,1-22,2,70.13,70.13,0,0,1-8-1c-1.7-2.61-3.08-4.65-4-6-1.5-2.19-2.17-3.11-1.94-4.19.36-1.78,2.89-2.69,4.15-3.09,5.19-1.66,26.64-6.94,55.79-13.72-30.5,2.65-51.14,4.74-56,6a9.1,9.1,0,0,1-5.93-.19,9.21,9.21,0,0,1-4.19-4.19C133.91,689.68,126.12,673.76,116,652Z" transform="translate(-19.2 -155)" style="fill: #f88223"/>
  <path d="M212.5,653.5c35.4-16.59,68.92-12.47,75-12,13,1,31,5,22,13-19.94,17.72-37,22-37,22-16.29,3.63-28.33.82-49-4-9.7-2.26-21.7-5.16-22-10C201.31,659.42,205.92,656.58,212.5,653.5Z" transform="translate(-19.2 -155)" style="fill: none;stroke: #f4b243;stroke-miterlimit: 10"/>
  <path d="M198.5,640.5c68.91-30.23,134-22.14,164-2,3.8,2.55,7.56,5.65,8,10,1.61,16-42.6,38.43-84,45-45.53,7.22-49.34-10.83-123-10-7.92.09-19.51.43-21-4C139.75,671.34,172.85,651.75,198.5,640.5Z" transform="translate(-19.2 -155)" style="fill: none;stroke: #f4b243;stroke-miterlimit: 10"/>
  <path d="M416.5,637.5a209.76,209.76,0,0,1,24.31-.57c4.06.1,8.11.36,12.16.65s8.08.76,12.12,1.23,8,1.11,12,1.79,8,1.45,11.95,2.36a208.43,208.43,0,0,1,23.42,6.54c-8-1.45-15.91-2.93-23.87-4.24-4-.63-7.95-1.3-11.94-1.85s-8-1.15-12-1.62c-8-1-16-1.83-24-2.53S424.59,638.05,416.5,637.5Z" transform="translate(-19.2 -155)" style="fill: #713100"/>
  <path d="M415.5,637.5q12.24.27,24.44,1.26c8.13.62,16.24,1.48,24.34,2.46s16.17,2.17,24.21,3.54,16.06,2.93,24,4.74l-24.24-3.2c-8.07-1-16.14-2.12-24.22-3.1s-16.17-2-24.25-2.9Z" transform="translate(-19.2 -155)" style="fill: #f4b243"/>
  <path d="M451.5,705.5C435,704,418.47,702.74,402,702c-8.25-.35-16.5-.72-24.76-.83s-16.5-.24-24.76-.11-16.5.26-24.75.62S311.2,702.45,303,703c-16.49,1.12-32.95,2.75-49.46,4.54a409.45,409.45,0,0,1,49.1-8.42c8.26-1,16.56-1.62,24.85-2.18s16.63-.75,24.94-.88,16.64,0,25,.38,16.61.86,24.89,1.67A412.85,412.85,0,0,1,451.5,705.5Z" transform="translate(-19.2 -155)" style="fill: #713100"/>
  <path d="M253.5,707.5q24.54-3.6,49.33-5.39c8.25-.64,16.52-1.07,24.78-1.44s16.55-.52,24.82-.64,16.56,0,24.83.14,16.55.46,24.81.93q24.8,1.29,49.43,4.4-24.76-1.35-49.52-2.06c-8.26-.19-16.51-.39-24.76-.43s-16.5-.09-24.76,0-16.5.24-24.75.47-16.49.58-24.74.94Q278.24,705.64,253.5,707.5Z" transform="translate(-19.2 -155)" style="fill: #f4b243"/>
  <path d="M480.63,746.48a93,93,0,0,1-1.43-12.68,64,64,0,0,1,.84-12.74,45.57,45.57,0,0,1,3.86-12.19,37.1,37.1,0,0,1,7.47-10.4c6.14-6.08,14.2-9.83,22.44-12a101.67,101.67,0,0,1,25.4-2.89,208.75,208.75,0,0,1,25.49,1.82c8.43,1.11,16.89,2.22,25.2,4.14q6.24,1.39,12.36,3.24c4.08,1.21,8.12,2.58,12.1,4.08a189.61,189.61,0,0,1,23.2,10.61,191.23,191.23,0,0,0-23.37-10.16c-4-1.44-8-2.77-12.11-3.92s-8.2-2.21-12.34-3.1c-8.3-1.79-16.72-2.93-25.15-4a207.4,207.4,0,0,0-25.38-1.72A100.89,100.89,0,0,0,514,687.38c-8.16,2.08-16,5.77-22.13,11.63s-9.89,13.83-11.4,22.14a63.82,63.82,0,0,0-1.06,12.65A93,93,0,0,0,480.63,746.48Z" transform="translate(-19.2 -155)" style="fill: #f4b243"/>
  <path d="M628.62,725.81q-10.46-3.36-21-6.5c-7-2.11-14-4.13-21.12-6s-14.17-3.64-21.32-5.16a214.45,214.45,0,0,0-21.61-3.59,104.86,104.86,0,0,0-10.91-.64A46.81,46.81,0,0,0,521.9,705a20.86,20.86,0,0,0-5,1.92,10.55,10.55,0,0,0-3.85,3.53,10,10,0,0,0-1.53,5,18.2,18.2,0,0,0,.53,5.33,43.81,43.81,0,0,0,4.06,10.07,99.14,99.14,0,0,0,5.75,9.31,208.09,208.09,0,0,0,13.46,17.33,208.28,208.28,0,0,1-13.86-17.05,94.58,94.58,0,0,1-5.9-9.29A43.83,43.83,0,0,1,511.31,721a18.53,18.53,0,0,1-.63-5.56,10.9,10.9,0,0,1,1.64-5.39,11.38,11.38,0,0,1,4.14-3.84,21.5,21.5,0,0,1,5.21-2,47.59,47.59,0,0,1,11-1.17,101.13,101.13,0,0,1,11,.6,214.62,214.62,0,0,1,21.7,3.69q10.74,2.36,21.33,5.31t21.06,6.29Q618.24,722.2,628.62,725.81Z" transform="translate(-19.2 -155)" style="fill: #f4b243"/>
  <path d="M156.5,734.5q15.93-3.69,31.94-7t32.14-6c10.74-1.86,21.5-3.61,32.3-5.17l8.09-1.18,8.1-1.08c5.4-.75,10.82-1.36,16.24-2,21.67-2.26,43.5-3.9,65.32-2.78S394,715.33,414.5,722.5A263,263,0,0,0,383,714.05c-5.33-1.08-10.7-2-16.09-2.72S356,710.2,350.6,709.94c-21.76-1-43.55.74-65.19,3.1-5.41.62-10.82,1.19-16.22,1.92l-8.1,1-8.1,1.13c-10.79,1.5-21.55,3.2-32.29,5s-21.47,3.77-32.16,5.84S167.15,732.2,156.5,734.5Z" transform="translate(-19.2 -155)" style="fill: #f4b243"/>
  <path d="M26.08,902.59a23.63,23.63,0,0,0-6.2,10.85c-2.36,9.4,2.13,17,3.1,18.59l74.38,161.16a24,24,0,0,0,9.3,6.2c12.65,4.5,26.33-4.09,28.67-5.42,22.57-13,193.43-41.62,327.74-31.77,97,7.12,306.29,44,330.06,52.69,1.58.57,8,3.1,14.72.77,9.64-3.37,13.64-14.67,15.5-20.14,25.44-75.14,24.95-76.21,29.44-86.78,9.42-22.16,15.19-46.18,27.89-66.63,1-1.55,4.18-6.59,3.1-12.4-1.22-6.58-7.35-10.85-11.62-13.17Z" transform="translate(-19.2 -155)" style="fill: #471c00"/>
  <path d="M38.31,893.51c-1.33,1-10.76,8.15-12,9.59a3.28,3.28,0,0,0-.41.66,3.85,3.85,0,0,0,.07,2.76,4.86,4.86,0,0,0,.23.5c1.28,2.4,78.14,170.32,79.85,181.93a5.19,5.19,0,0,0,1.29,2.93c2.44,2.61,7.61,1.54,8.32,1.38a12.05,12.05,0,0,0,2.58-.85c2.54-1.2,141.77-53.52,333.15-51.13,203.22,2.55,347,65,348.5,65.77a3.84,3.84,0,0,0,.81.3,7.16,7.16,0,0,0,7.67-3.47,5.44,5.44,0,0,0,.47-1.23c4.11-17.85,12.22-34.55,17.56-52.07,13.9-45.67,46.12-106.89,51.13-113.12a18,18,0,0,0,3.1-6.2c.49-1.75,1.07-4,0-6.2a7.12,7.12,0,0,0-3.1-3.1l-296-54.23-333.16,7.74Z" transform="translate(-19.2 -155)" style="fill: #85390b"/>
  <path d="M35.38,905.69a9.87,9.87,0,0,1-.78-7c2-6.49,12.43-8.6,17-9.3,104-27.15,259.84-57.33,437-51.14,160.25,5.61,266.31,38.47,291.33,46.49a961,961,0,0,1,92.2,34.87A6.93,6.93,0,0,1,876,922c2.22,2.76,1.45,6.74-.13,8.89a4.84,4.84,0,0,1-3.11,2.14,3.3,3.3,0,0,1-1.41-.18c-1.48-.51-11.19-.61-34.09,0,15.74,4,21.81,5.06,23.65,5a3.74,3.74,0,0,1,1.93.4,4.47,4.47,0,0,1,2.13,4,5.16,5.16,0,0,1-1.36,3c-8,9.36-12,14-17.53,13.54a9.3,9.3,0,0,1-2-.4c-5.21-1.61-30.34-6.82-96.72-19.34,68.65,21.71,98.07,30.74,100.2,30.94a3.58,3.58,0,0,1,1.36.42c1.81,1,2.64,3.67,2.26,5.83a5.48,5.48,0,0,1-.62,1.75c-3,5.38-25.79,51-27.66,57.52a7.21,7.21,0,0,1-.93,2,6.8,6.8,0,0,1-5.49,3.18,5.06,5.06,0,0,1-1.24-.22c-2-.63-20.33-3.88-66.33-11.54,45.56,13.73,64.24,19,65.93,19a2.49,2.49,0,0,1,1.39.4c1.12.77,1.41,2.58,1.12,4a4.6,4.6,0,0,1-.55,1.41c-2.28,3.71-15.59,36.91-16.31,44.19a4.43,4.43,0,0,1-.84,2.28,5.58,5.58,0,0,1-6.87,1.06c-2.43-1.43-68-24.34-141.5-39.79-96.76-20.34-183.78-22.81-203-23.25-76.94-1.73-192.54,3.8-330.06,41.84a7.44,7.44,0,0,1-6.2,0,7,7,0,0,1-3.1-3.1c-7.33-22.05-12.28-34.73-15.49-40.29-.68-1.18-2.94-4.89-1.55-7.75,1.07-2.18,3.8-2.86,4.65-3.09,5.26-1.43,16.58-6.77,35.64-17a109,109,0,0,1-46.49,1.55c-2.63-4-4.77-7.21-6.2-9.3-2.32-3.39-3.36-4.82-3-6.49.57-2.76,4.49-4.17,6.43-4.79,8-2.58,41.28-10.75,86.46-21.26-47.27,4.11-79.25,7.35-86.78,9.3a14.12,14.12,0,0,1-9.19-.3c-3.69-1.6-5.59-4.87-6.49-6.48C63.14,964.08,51.06,939.4,35.38,905.69Z" transform="translate(-19.2 -155)" style="fill: #f88223"/>
  <path d="M184.91,908c54.86-25.72,106.8-19.32,116.22-18.6,20.15,1.55,48,7.75,34.09,20.15-30.89,27.46-57.33,34.09-57.33,34.09-25.25,5.62-43.91,1.27-75.93-6.2-15-3.51-33.63-8-34.09-15.5C167.57,917.19,174.72,912.79,184.91,908Z" transform="translate(-19.2 -155)" style="fill: none;stroke: #f4b243;stroke-miterlimit: 10"/>
  <path d="M163.22,887.87C270,841,370.86,853.57,417.35,884.77c5.9,4,11.72,8.75,12.4,15.5,2.5,24.78-66,59.55-130.17,69.73C229,981.19,223.12,953.21,109,954.5c-12.27.14-30.23.67-32.54-6.19C72.19,935.66,123.48,905.3,163.22,887.87Z" transform="translate(-19.2 -155)" style="fill: none;stroke: #f4b243;stroke-miterlimit: 10"/>
  <path d="M501,883.22q18.79-1,37.64-.24c6.28.22,12.54.66,18.8,1.15s12.51,1.19,18.75,1.94,12.45,1.7,18.64,2.73,12.37,2.18,18.51,3.51q18.43,3.87,36.42,9.51-18.39-3.95-36.86-7.21c-6.17-1.05-12.33-2.11-18.51-3s-12.37-1.8-18.57-2.55c-12.4-1.58-24.84-2.79-37.31-3.74S513.57,883.69,501,883.22Z" transform="translate(-19.2 -155)" style="fill: #713100"/>
  <path d="M499.48,883.22c6.32.14,12.63.46,18.94.76s12.61.8,18.92,1.28c12.6,1,25.17,2.34,37.72,3.81s25.06,3.37,37.52,5.49q9.34,1.62,18.66,3.38c6.19,1.24,12.39,2.47,18.55,3.88-6.24-1-12.47-2-18.72-2.92s-12.48-1.93-18.73-2.82c-12.49-1.8-25-3.56-37.52-5-12.52-1.63-25.07-3-37.62-4.27q-9.42-1-18.85-1.83C512.07,884.32,505.77,883.81,499.48,883.22Z" transform="translate(-19.2 -155)" style="fill: #f4b243"/>
  <path d="M555.27,1019.59c-25.55-2.82-51.1-5.14-76.69-6.56-12.8-.68-25.6-1.27-38.4-1.53s-25.62-.41-38.42-.23-25.61.43-38.41,1-25.58,1.37-38.36,2.29c-25.56,1.95-51.06,4.76-76.54,8.1a721.73,721.73,0,0,1,76.18-12c12.8-1.4,25.64-2.35,38.48-3.14s25.72-1.12,38.6-1.3,25.75,0,38.61.52,25.72,1.22,38.53,2.36A726.71,726.71,0,0,1,555.27,1019.59Z" transform="translate(-19.2 -155)" style="fill: #713100"/>
  <path d="M248.45,1022.69c12.69-1.74,25.42-3.14,38.17-4.48s25.52-2.3,38.31-3.21c25.57-1.83,51.2-2.76,76.83-3s51.28.19,76.89,1.49q19.2,1,38.36,2.44c12.77,1.09,25.53,2.23,38.26,3.71-12.79-.81-25.56-1.65-38.35-2.24s-25.57-1.23-38.37-1.6c-25.58-.75-51.17-1.1-76.76-.8s-51.16,1.06-76.72,2.34q-19.19.94-38.33,2.38C274,1020.51,261.21,1021.62,248.45,1022.69Z" transform="translate(-19.2 -155)" style="fill: #f4b243"/>
  <path d="M600.41,1052.09a143.69,143.69,0,0,1-2.15-19.64,99.49,99.49,0,0,1,1.36-19.72,75.8,75.8,0,0,1,2.35-9.62,68.26,68.26,0,0,1,3.68-9.21,57.63,57.63,0,0,1,11.59-16,66.35,66.35,0,0,1,16.12-11.48,89.52,89.52,0,0,1,18.54-7C664.71,956.09,678,955,691.18,955a323.6,323.6,0,0,1,39.47,2.82c13.06,1.72,26.15,3.5,39,6.39,1.61.34,3.21.72,4.81,1.12l4.81,1.18c3.18.88,6.38,1.69,9.53,2.66,6.33,1.85,12.58,4,18.76,6.25a295.62,295.62,0,0,1,36,16.32,294.15,294.15,0,0,0-36.16-15.86c-6.18-2.25-12.43-4.34-18.76-6.15-3.15-1-6.34-1.75-9.52-2.61l-4.79-1.16c-1.6-.39-3.2-.77-4.82-1.1-12.85-2.83-25.92-4.55-39-6.21A321.89,321.89,0,0,0,691.18,956c-13.13,0-26.34,1-39.07,4.28a89.7,89.7,0,0,0-18.41,6.83,65.66,65.66,0,0,0-16,11.3,57,57,0,0,0-11.53,15.8,66.53,66.53,0,0,0-3.69,9.11,78.85,78.85,0,0,0-2.38,9.55,97.8,97.8,0,0,0-1.59,19.63A142.24,142.24,0,0,0,600.41,1052.09Z" transform="translate(-19.2 -155)" style="fill: #f4b243"/>
  <path d="M829.73,1020.06q-16.18-5.26-32.48-10.19c-10.85-3.31-21.74-6.49-32.69-9.44s-22-5.67-33-8A330.78,330.78,0,0,0,698,986.86a159.52,159.52,0,0,0-16.92-1,72.14,72.14,0,0,0-16.79,1.7,33.34,33.34,0,0,0-7.82,3,16.72,16.72,0,0,0-6.06,5.57,13.8,13.8,0,0,0-1.73,3.76,17.78,17.78,0,0,0-.7,4.1,28,28,0,0,0,.88,8.33,67,67,0,0,0,6.36,15.65,153.25,153.25,0,0,0,9,14.41,319.87,319.87,0,0,0,21,26.77,319.66,319.66,0,0,1-21.37-26.49,148.69,148.69,0,0,1-9.09-14.42,67.66,67.66,0,0,1-6.5-15.76,28.44,28.44,0,0,1-.93-8.53,17.74,17.74,0,0,1,.71-4.27,14.21,14.21,0,0,1,1.79-3.95,17.44,17.44,0,0,1,6.3-5.86,34.11,34.11,0,0,1,8-3.11,73,73,0,0,1,17-1.81,158.91,158.91,0,0,1,17,.92,333.94,333.94,0,0,1,33.58,5.73c11.1,2.42,22.11,5.2,33.06,8.2s21.82,6.23,32.66,9.61S819,1016.39,829.73,1020.06Z" transform="translate(-19.2 -155)" style="fill: #f4b243"/>
  <path d="M98.14,1033.53q24.69-5.65,49.52-10.7t49.81-9.29c16.64-2.87,33.32-5.57,50-8l12.54-1.81,12.56-1.67c8.37-1.15,16.76-2.08,25.15-3.07,33.58-3.53,67.4-6.11,101.19-4.4q12.66.68,25.25,2.28c8.38,1.13,16.71,2.6,25,4.34a407.27,407.27,0,0,1,48.76,13.7,404.6,404.6,0,0,0-48.86-13.22c-8.26-1.7-16.58-3.15-24.94-4.25s-16.78-1.77-25.21-2.18c-33.74-1.6-67.51,1.09-101.05,4.72-8.38,1-16.78,1.86-25.14,3l-12.56,1.62-12.54,1.78c-16.72,2.33-33.4,5-50,7.8s-33.25,5.87-49.83,9.1S114.63,1029.92,98.14,1033.53Z" transform="translate(-19.2 -155)" style="fill: #f4b243"/>
  <rect x="58.8" y="227" width="925" height="126" rx="38" ry="38" style="fill: #343128;opacity: 0.7000000000000001"/>
  <g>
    <path d="M939.49,348.25q-.87,0-1.8-.06a28.28,28.28,0,0,1-5.47-.91.51.51,0,0,1-.37-.48v-8.58l-4.7-1.57-5.15,6a.46.46,0,0,1-.38.18.39.39,0,0,1-.18,0,17,17,0,0,1-7.37-5.53,16.79,16.79,0,0,1-2.76-5.53.49.49,0,0,1,.16-.52l4.22-3.38-1.61-6.46h-7.66a.5.5,0,0,1-.48-.37,25.1,25.1,0,0,1-.91-8.21,25.42,25.42,0,0,1,.91-5.47.5.5,0,0,1,.48-.37h8.5l.8-6.42-6-4.3a.49.49,0,0,1-.19-.54,16.4,16.4,0,0,1,5.54-8.31,16,16,0,0,1,5.54-2.77h.13a.5.5,0,0,1,.35.14l6,6,4.76-2.39v-7.73a.52.52,0,0,1,.37-.49,28.28,28.28,0,0,1,5.47-.91q.93-.06,1.8-.06a28.26,28.26,0,0,1,7.3,1,.5.5,0,0,1,.37.49v7.73l4.74,2.37,4.21-5.06a.5.5,0,0,1,.39-.18.54.54,0,0,1,.21.05,21.24,21.24,0,0,1,11,11.9.52.52,0,0,1-.15.56l-5,4.16,3.12,3.9h6a.51.51,0,0,1,.44.26,15.69,15.69,0,0,1,0,14.78.52.52,0,0,1-.44.27h-5.91l-2.42,6.43,4.12,2.47a.52.52,0,0,1,.21.61,21.24,21.24,0,0,1-11,11.9.54.54,0,0,1-.21.05.52.52,0,0,1-.41-.21l-4.2-5.89L948,339.05l-.87,7.8a.49.49,0,0,1-.37.43A28.26,28.26,0,0,1,939.49,348.25Zm0-44.32a9.79,9.79,0,1,0,9.78,9.78A9.79,9.79,0,0,0,939.49,303.93Z" transform="translate(-19.2 -155)" style="fill: #ffd500"/>
    <path d="M939.49,279.67a27.43,27.43,0,0,1,7.17,1v8l5.37,2.69L956.5,286a20.68,20.68,0,0,1,10.73,11.63l-5.37,4.47,3.58,4.47h6.26a15.2,15.2,0,0,1,0,14.31h-6.26L962.76,328l4.47,2.68a20.68,20.68,0,0,1-10.73,11.63L952,336.07l-4.47,2.68-.9,8.05a27.48,27.48,0,0,1-7.17.95q-.86,0-1.77-.06a27.27,27.27,0,0,1-5.37-.89v-8.94L927,336.07l-5.37,6.26a16.71,16.71,0,0,1-7.15-5.37,16.26,16.26,0,0,1-2.68-5.36l4.47-3.58-1.79-7.15h-8.05a24.91,24.91,0,0,1-.89-8.05,24.36,24.36,0,0,1,.89-5.37h8.94l.9-7.15L910,295.83a15.85,15.85,0,0,1,5.36-8.05,15.26,15.26,0,0,1,5.37-2.68q3.13,3.12,6.26,6.26l5.36-2.69v-8a27.21,27.21,0,0,1,5.37-.9q.91-.06,1.77-.06m0,44.33a10.29,10.29,0,1,0-10.28-10.29A10.29,10.29,0,0,0,939.49,324m0-45.33c-.61,0-1.23,0-1.84.06a29.22,29.22,0,0,0-5.56.93,1,1,0,0,0-.74,1v7.43l-4.16,2.08-1.2-1.2-4.55-4.55a1,1,0,0,0-.71-.29l-.27,0a16.24,16.24,0,0,0-5.71,2.86,16.88,16.88,0,0,0-5.71,8.56,1,1,0,0,0,.38,1.09l2.69,1.92,3.08,2.21-.71,5.68h-8.06a1,1,0,0,0-1,.73,25.23,25.23,0,0,0-.93,5.58,25.84,25.84,0,0,0,.93,8.38,1,1,0,0,0,1,.73h7.27l1.44,5.77-1.27,1-2.7,2.16a1,1,0,0,0-.33,1.05,17.13,17.13,0,0,0,2.84,5.7,17.62,17.62,0,0,0,7.59,5.69,1.15,1.15,0,0,0,.36.07,1,1,0,0,0,.76-.35l4.93-5.75,4,1.35v8.22a1,1,0,0,0,.74,1,27.73,27.73,0,0,0,5.56.93c.61,0,1.23.06,1.84.06a28.35,28.35,0,0,0,7.43-1,1,1,0,0,0,.74-.85l.84-7.56,3.25-2,2.15,3,1.78,2.5a1,1,0,0,0,.82.42.92.92,0,0,0,.42-.1,21.69,21.69,0,0,0,11.25-12.18,1,1,0,0,0-.43-1.21L964,327.59l2.14-5.72h5.57a1,1,0,0,0,.88-.53,16.18,16.18,0,0,0,0-15.25,1,1,0,0,0-.88-.53h-5.78l-2.66-3.33,1.77-1.48,2.84-2.37a1,1,0,0,0,.3-1.11,21.55,21.55,0,0,0-4.69-7.5,21.82,21.82,0,0,0-6.56-4.69,1.06,1.06,0,0,0-.42-.09,1,1,0,0,0-.77.36l-4,4.76-4.11-2.05v-7.43a1,1,0,0,0-.74-1,28.35,28.35,0,0,0-7.43-1Zm0,44.33a9.29,9.29,0,1,1,9.28-9.29,9.3,9.3,0,0,1-9.28,9.29Z" transform="translate(-19.2 -155)" style="fill: #405151"/>
  </g>
  <circle cx="920.29" cy="160.5" r="46.5" style="fill: none;stroke: #ffd500;stroke-miterlimit: 10;stroke-width: 3px"/>
  <rect x="205.3" y="125.5" width="235" height="13" rx="6.5" ry="6.5" style="stroke-miterlimit: 10;opacity: 0.7000000000000001;fill: url(#Градієнт_без_назви_4);stroke: url(#Градієнт_без_назви_4-2)"/>
  <path d="M1097.72,347.5a147.6,147.6,0,0,1,9.47-59.42A154,154,0,0,1,1189.47,202a149.8,149.8,0,0,1,119.47,0,153.74,153.74,0,0,1,82.29,86.14,147.37,147.37,0,0,1,9.49,59.41,154.75,154.75,0,0,0-45.24-107.37,159,159,0,0,0-22.81-18.87,149.82,149.82,0,0,0-26-14.09,147.75,147.75,0,0,0-115,0,153.16,153.16,0,0,0-48.79,32.92,154.79,154.79,0,0,0-45.19,107.41Z" transform="translate(-19.2 -155)" style="fill: #ffff7b"/>
  <path d="M1408,282a48.16,48.16,0,0,0,0,6.16,21.57,21.57,0,0,0,3.28,9.93A41.62,41.62,0,0,0,1415,303a9.92,9.92,0,0,1-6.54-2.2,12.41,12.41,0,0,1-4.32-13.1A10.18,10.18,0,0,1,1408,282Z" transform="translate(-19.2 -155)" style="fill: #1d1714"/>
  <path d="M1414.47,314.76a47.77,47.77,0,0,0-.82,6.1,20.76,20.76,0,0,0,.31,5.27,21.4,21.4,0,0,0,1.57,5,42.75,42.75,0,0,0,3,5.37,9.94,9.94,0,0,1-6.17-3.08,12.41,12.41,0,0,1-2.48-13.57A10.23,10.23,0,0,1,1414.47,314.76Z" transform="translate(-19.2 -155)" style="fill: #1d1714"/>
  <path d="M1419.9,350a47.06,47.06,0,0,0-2.7,5.54,21.69,21.69,0,0,0-1.45,10.36,41.9,41.9,0,0,0,1.14,6,9.88,9.88,0,0,1-4.89-4.86,12.44,12.44,0,0,1,1.92-13.67A10.24,10.24,0,0,1,1419.9,350Z" transform="translate(-19.2 -155)" style="fill: #1d1714"/>
  <path d="M1087.87,282a10.18,10.18,0,0,1,3.86,5.7,12.41,12.41,0,0,1-4.32,13.1,9.92,9.92,0,0,1-6.54,2.2,41.62,41.62,0,0,0,3.69-4.91,21.57,21.57,0,0,0,3.28-9.93A46.4,46.4,0,0,0,1087.87,282Z" transform="translate(-19.2 -155)" style="fill: #1d1714"/>
  <path d="M1081.4,314.76a10.23,10.23,0,0,1,4.61,5.11,12.41,12.41,0,0,1-2.48,13.57,9.91,9.91,0,0,1-6.17,3.08,42.75,42.75,0,0,0,3-5.37,21.4,21.4,0,0,0,1.57-5,20.76,20.76,0,0,0,.31-5.27A47.77,47.77,0,0,0,1081.4,314.76Z" transform="translate(-19.2 -155)" style="fill: #1d1714"/>
  <path d="M1076,350a10.24,10.24,0,0,1,6,3.4,12.44,12.44,0,0,1,1.92,13.67,9.88,9.88,0,0,1-4.89,4.86,41.9,41.9,0,0,0,1.14-6,21.69,21.69,0,0,0-1.45-10.36A47.06,47.06,0,0,0,1076,350Z" transform="translate(-19.2 -155)" style="fill: #1d1714"/>
  <path d="M1249,297c24.81,0,45,21.08,45,47s-20.19,47-45,47-45-21.08-45-47,20.19-47,45-47m0-107c-84,0-152,68.95-152,154s68,154,152,154,152-68.95,152-154-68-154-152-154Z" transform="translate(-19.2 -155)" style="fill: url(#Градієнт_без_назви_67)"/>
  <path d="M101,1161c-34.89,0-63.17,28.65-63.17,64s28.28,64,63.17,64,63.17-28.65,63.17-64-28.28-64-63.17-64Z" transform="translate(-19.2 -155)" style="fill: url(#Градієнт_без_назви_67-2)"/>
  <rect x="186.16" y="1046" width="385.38" height="49" rx="24.5" ry="24.5" style="fill: #35342c;stroke: #1d1714;stroke-miterlimit: 10;stroke-width: 5px"/>
  <rect x="873.42" y="877.92" width="188.38" height="183.61" rx="26.5" ry="26.5" style="fill: #453b3f"/>
  <rect x="888.52" y="890.64" width="158.17" height="157.38" rx="16.38" ry="16.38" style="fill: #ff1127"/>
  <rect x="888.52" y="869.97" width="158.17" height="157.38" rx="16.38" ry="16.38" style="fill: #ff3d31"/>
  <g>
    <path d="M971.91,1164.38a2,2,0,0,1-1.42-.59,2,2,0,0,1-.58-1.43l.49-72.79H944.1a2,2,0,0,1-1.39-3.44L985.42,1045a2,2,0,0,1,2.78,0l42.71,41.14a2,2,0,0,1-1.39,3.44h-25.81v72.81a2,2,0,0,1-2,2Z" transform="translate(-19.2 -155)" style="fill: #fff"/>
    <path d="M986.81,1046.43l42.71,41.14h-27.81v74.81h-29.8l.5-74.81H944.1l42.71-41.14m0-4a4,4,0,0,0-2.77,1.12l-42.72,41.14a4,4,0,0,0,2.78,6.88h24.28l-.47,70.78a4,4,0,0,0,4,4h29.8a4,4,0,0,0,4-4v-70.81h23.81a4,4,0,0,0,2.78-6.88l-42.71-41.14a4,4,0,0,0-2.78-1.12Z" transform="translate(-19.2 -155)" style="fill: #fff"/>
  </g>
  <rect x="1115.8" y="870" width="45" height="45" rx="12" ry="12" style="fill: #ff5d5c"/>
  <path d="M1158.64,1055.51c-.67,0-1.44-6.26-2.28-24.31a2.29,2.29,0,1,1,4.57,0C1160.08,1049.25,1159.31,1055.51,1158.64,1055.51Z" transform="translate(-19.2 -155)" style="fill: #fff;stroke: #fff;stroke-miterlimit: 10"/>
  <circle cx="1139.44" cy="905.85" r="3.05" style="fill: #fff;stroke: #fff;stroke-miterlimit: 10"/>
  <rect x="916.46" y="435.67" width="75" height="376.33" rx="37.5" ry="37.5" style="fill: #ffff7b"/>
  <rect x="924.46" y="441.67" width="59" height="365.33" rx="29.5" ry="29.5" style="fill: #85390b"/>
  <rect x="933.96" y="450.17" width="40" height="348.33" rx="20" ry="20" style="fill: #f88223;stroke: #1d1714;stroke-miterlimit: 10;stroke-width: 5px"/>
  <circle cx="1033.8" cy="624" r="17" style="fill: #35342c;stroke: #1d1714;stroke-miterlimit: 10;stroke-width: 5px"/>
  <circle cx="1034.3" cy="778.5" r="17" style="fill: #cd1c2d;stroke: #1d1714;stroke-miterlimit: 10;stroke-width: 5px"/>
  <circle cx="82.3" cy="1070.37" r="67.5" style="fill: #cd1c2d;stroke: #1d1714;stroke-miterlimit: 10;stroke-width: 5px"/>
  <g>
    <line x1="82.3" y1="1002.63" x2="82.3" y2="1011.82" style="fill: #cd1c2d"/>
    <polygon points="84.8 1002.63 82.3 1011.82 79.8 1002.63 84.8 1002.63" style="fill: #1d1714"/>
  </g>
  <g>
    <line x1="82.3" y1="1137.39" x2="82.3" y2="1128.19" style="fill: #cd1c2d"/>
    <polygon points="79.8 1137.39 82.3 1128.19 84.8 1137.39 79.8 1137.39" style="fill: #1d1714"/>
  </g>
  <g>
    <line x1="149.67" y1="1070.01" x2="140.48" y2="1070.01" style="fill: #cd1c2d"/>
    <polygon points="149.68 1072.51 140.48 1070.01 149.68 1067.51 149.68 1072.51" style="fill: #1d1714"/>
  </g>
  <g>
    <line x1="14.92" y1="1070.01" x2="24.11" y2="1070.01" style="fill: #cd1c2d"/>
    <polygon points="14.92 1067.51 24.11 1070.01 14.92 1072.51 14.92 1067.51" style="fill: #1d1714"/>
  </g>
  <g>
    <line x1="129.94" y1="1022.36" x2="123.44" y2="1028.86" style="fill: #cd1c2d"/>
    <polygon points="131.71 1024.13 123.44 1028.87 128.17 1020.6 131.71 1024.13" style="fill: #1d1714"/>
  </g>
  <g>
    <line x1="34.65" y1="1117.65" x2="41.15" y2="1111.15" style="fill: #cd1c2d"/>
    <polygon points="32.88 1115.88 41.15 1111.15 36.42 1119.42 32.88 1115.88" style="fill: #1d1714"/>
  </g>
  <g>
    <line x1="129.94" y1="1117.65" x2="123.44" y2="1111.15" style="fill: #cd1c2d"/>
    <polygon points="128.17 1119.42 123.44 1111.15 131.71 1115.88 128.17 1119.42" style="fill: #1d1714"/>
  </g>
  <g>
    <line x1="34.65" y1="1022.36" x2="41.15" y2="1028.86" style="fill: #cd1c2d"/>
    <polygon points="36.42 1020.6 41.15 1028.87 32.88 1024.13 36.42 1020.6" style="fill: #1d1714"/>
  </g>
  <g>
    <line x1="15.3" y1="1070.5" x2="38.3" y2="1070.5" style="fill: #cd1c2d"/>
    <polygon points="15.3 1068 38.3 1070.5 15.3 1073 15.3 1068" style="fill: #1d1714"/>
  </g>
  <g>
    <line x1="147.8" y1="1070.5" x2="124.8" y2="1070.5" style="fill: #cd1c2d"/>
    <polygon points="147.8 1073 124.8 1070.5 147.8 1068 147.8 1073" style="fill: #1d1714"/>
  </g>
  <path d="M598.75,977a934.9,934.9,0,0,0-317.5,0,12.38,12.38,0,0,1-8.65-3.68,12.62,12.62,0,0,1-3.6-8.84V920.65a12.43,12.43,0,0,1,12.25-12.52,635.94,635.94,0,0,1,317.5,0,12.38,12.38,0,0,1,8.65,3.68,12.62,12.62,0,0,1,3.6,8.84v43.83A12.42,12.42,0,0,1,598.75,977Z" transform="translate(-19.2 -155)" style="fill: #471c00"/>
  <g style="opacity: 0.5">
    <path d="M279,966c13.14-3.46,26.42-6.35,39.79-8.9,13.45-1.93,26.95-3.56,40.49-4.8a779.89,779.89,0,0,1,162.8,2q20.25,2.38,40.36,5.82C575.74,963,589,966.25,602,970c-13.4-2.19-26.8-4.24-40.23-5.92q-20-3.42-40.15-5.79a774.68,774.68,0,0,0-162-2q-20.2,1.88-40.28,4.81C305.9,962.46,292.46,964.18,279,966Z" transform="translate(-19.2 -155)"/>
  </g>
  <g style="opacity: 0.5">
    <path d="M279,911c13.14-3.46,26.42-6.35,39.79-8.9,13.45-1.93,26.95-3.56,40.49-4.8a779.89,779.89,0,0,1,162.8,2q20.25,2.38,40.36,5.82C575.74,908,589,911.25,602,915c-13.4-2.19-26.8-4.24-40.23-5.92q-20-3.42-40.15-5.79a774.68,774.68,0,0,0-162-2q-20.2,1.88-40.28,4.81C305.9,907.46,292.46,909.18,279,911Z" transform="translate(-19.2 -155)"/>
  </g>
</svg>
