<svg id="Шар_1" data-name="Шар 1" xmlns="http://www.w3.org/2000/svg" viewBox="0 0 827.7 771.84">
  <title>improvements</title>
  <rect x="359.5" y="84.5" width="361" height="804" rx="57.5" ry="57.5" transform="translate(888.5 -359.5) rotate(90)" style="fill: #00756c"/>
  <g>
    <rect x="604.62" y="458.35" width="219.57" height="310" rx="25" ry="25" style="fill: #8ac9f7"/>
    <path d="M937.2,767.85a21.5,21.5,0,0,1,21.5,21.5v260a21.5,21.5,0,0,1-21.5,21.5H767.62a21.5,21.5,0,0,1-21.5-21.5v-260a21.5,21.5,0,0,1,21.5-21.5H937.2m0-7H767.62a28.53,28.53,0,0,0-28.5,28.5v260a28.53,28.53,0,0,0,28.5,28.5H937.2a28.53,28.53,0,0,0,28.5-28.5v-260a28.53,28.53,0,0,0-28.5-28.5Z" transform="translate(-138 -306)" style="fill: #161f27"/>
  </g>
  <rect x="614.69" y="467.55" width="199.44" height="291.59" rx="14.06" ry="14.06" style="fill: #6d8ea7"/>
  <rect x="350.62" y="527.92" width="188.38" height="183.61" rx="26.5" ry="26.5" style="fill: #161f27"/>
  <path d="M382.1,520H507.52a16.38,16.38,0,0,1,16.38,16.38V661a16.38,16.38,0,0,1-16.37,16.38H382.1A16.38,16.38,0,0,1,365.72,661V536.35A16.37,16.37,0,0,1,382.1,520Z" style="fill: #ff3d31"/>
  <g>
    <path d="M567.91,965.38a2,2,0,0,1-1.42-.59,2,2,0,0,1-.58-1.42l.49-72.8H540.1a2,2,0,0,1-1.39-3.44L581.42,846a2,2,0,0,1,2.78,0l42.71,41.14a2,2,0,0,1-1.39,3.44H599.71v72.81a2,2,0,0,1-2,2Z" transform="translate(-138 -306)" style="fill: #fff"/>
    <path d="M582.81,847.43l42.71,41.14H597.71v74.81h-29.8l.5-74.81H540.1l42.71-41.14m0-4a4,4,0,0,0-2.77,1.12l-42.72,41.14a4,4,0,0,0,2.78,6.88h24.28l-.47,70.78a4,4,0,0,0,4,4h29.8a4,4,0,0,0,4-4V892.57h23.81a4,4,0,0,0,2.78-6.88l-42.71-41.14a4,4,0,0,0-2.78-1.12Z" transform="translate(-138 -306)" style="fill: #fff"/>
  </g>
  <rect x="544" y="520" width="45" height="45" rx="12" ry="12" style="fill: #ff5d5c"/>
  <path d="M705.64,856.51c-.67,0-1.44-6.26-2.28-24.31a2.29,2.29,0,1,1,4.57,0C707.08,850.25,706.31,856.51,705.64,856.51Z" transform="translate(-138 -306)" style="fill: #fff;stroke: #fff;stroke-miterlimit: 10"/>
  <circle cx="567.64" cy="555.85" r="3.05" style="fill: #fff;stroke: #fff;stroke-miterlimit: 10"/>
  <rect x="16" y="525" width="235" height="13" rx="6.5" ry="6.5" style="fill: #161f27"/>
</svg>
